<svg style="position:absolute;width:0;height:0" xmlns="http://www.w3.org/2000/svg" overflow="hidden"><defs><symbol id="offert_1" viewBox="0 0 55 44" fill="none" xmlns="http://www.w3.org/2000/svg"><path d="M42.54 23.719h-5.157c-.238 0-.43.154-.43.343 0 .19.192.344.43.344h5.156c.238 0 .43-.154.43-.343 0-.19-.192-.344-.43-.344z" fill="currentColor"/><path d="M37.383 23.719H12.46c-.238 0-.43.154-.43.343 0 .19.192.344.43.344h24.922c.237 0 .43-.154.43-.343 0-.19-.193-.344-.43-.344zm1.289 3.094H16.328c-.238 0-.43.154-.43.343 0 .19.192.344.43.344h22.344c.238 0 .43-.154.43-.344 0-.19-.192-.343-.43-.343zm0 3.437H16.328c-.238 0-.43.154-.43.344 0 .19.192.343.43.343h22.344c.238 0 .43-.154.43-.343 0-.19-.192-.344-.43-.344zm0 1.375H16.328c-.238 0-.43.154-.43.344 0 .19.192.343.43.343h22.344c.238 0 .43-.154.43-.343 0-.19-.192-.344-.43-.344zM36.953 0H17.187c-.237 0-.43.154-.43.344 0 .19.193.344.43.344h19.766c.238 0 .43-.154.43-.344 0-.19-.192-.344-.43-.344zm0 16.156H18.047c-.238 0-.43.154-.43.344 0 .19.192.344.43.344h18.906c.238 0 .43-.154.43-.344 0-.19-.192-.344-.43-.344z" fill="currentColor"/><path d="M40.82 21.656H14.18c-1.185 0-2.149.771-2.149 1.719v.688c0 .19.192.343.43.343s.43-.154.43-.343v-.688c0-.569.578-1.031 1.289-1.031h26.64c.711 0 1.29.462 1.29 1.031v.688c0 .19.191.343.43.343.237 0 .429-.154.429-.343v-.688c0-.948-.964-1.719-2.149-1.719z" fill="currentColor"/><path d="M16.328 23.719c-.238 0-.43.154-.43.343v19.25h-3.007v-19.25c0-.19-.192-.343-.43-.343s-.43.154-.43.343v19.594c0 .19.192.344.43.344h3.867c.238 0 .43-.154.43-.344V24.063c0-.19-.192-.344-.43-.344zm26.212 0c-.239 0-.43.154-.43.343v19.25h-3.008v-19.25c0-.19-.192-.343-.43-.343s-.43.154-.43.343v19.594c0 .19.192.344.43.344h3.867c.238 0 .43-.154.43-.344V24.063c0-.19-.192-.344-.43-.344zM35.664 3.438H19.336c-1.185 0-2.148.77-2.148 1.718v8.594c0 .948.963 1.719 2.148 1.719h16.328c1.185 0 2.148-.771 2.148-1.719V5.156c0-.947-.963-1.718-2.148-1.718zm1.29 10.312c0 .569-.58 1.031-1.29 1.031H19.336c-.71 0-1.29-.462-1.29-1.031V5.156c0-.568.58-1.031 1.29-1.031h16.328c.71 0 1.29.463 1.29 1.031v8.594z" fill="currentColor"/><path d="M18.047 0H14.18c-.238 0-.43.154-.43.344V22c0 .19.192.344.43.344.237 0 .43-.154.43-.344V.687h3.007v3.438c0 .19.192.344.43.344s.43-.154.43-.344V.344c0-.19-.192-.344-.43-.344zm0 14.438c-.238 0-.43.153-.43.343V22c0 .19.192.344.43.344s.43-.154.43-.344v-7.219c0-.19-.192-.344-.43-.344zm18.906 0c-.238 0-.43.153-.43.343V22c0 .19.192.344.43.344s.43-.154.43-.344v-7.219c0-.19-.192-.344-.43-.344zM40.82 0h-3.867c-.238 0-.43.154-.43.344v3.781c0 .19.192.344.43.344s.43-.154.43-.344V.687h3.008V22c0 .19.192.344.43.344.237 0 .429-.154.429-.344V.344c0-.19-.192-.344-.43-.344zM30.508 5.156h-1.719c-.238 0-.43.154-.43.344 0 .19.192.344.43.344h1.719c.237 0 .43-.154.43-.344 0-.19-.193-.344-.43-.344zm4.726 0h-3.007c-.238 0-.43.154-.43.344 0 .19.192.344.43.344h2.578v1.375c0 .19.192.343.43.343.237 0 .43-.154.43-.343V5.5c0-.19-.193-.344-.43-.344z" fill="currentColor"/></symbol><symbol id="offert_2" viewBox="0 0 44 48" fill="none" xmlns="http://www.w3.org/2000/svg"><path d="M1.04 19.127a.32.32 0 01-.132-.028.345.345 0 01-.111-.082.38.38 0 01-.101-.265v-7.497c0-.207.154-.375.344-.375.19 0 .343.168.343.375v7.497a.404.404 0 01-.1.265.344.344 0 01-.112.082.32.32 0 01-.131.028zm39.878 12.745c-.19 0-.346-.168-.346-.375s.15-.375.34-.375h.006c.19 0 .344.168.344.375s-.153.375-.344.375zM1.727 43.117a.318.318 0 01-.132-.028.343.343 0 01-.111-.082.405.405 0 01-.1-.265v-22.49c0-.208.153-.375.343-.375.19 0 .343.167.343.375v22.49a.405.405 0 01-.1.265.343.343 0 01-.112.082.318.318 0 01-.131.028zm2.749 0a.318.318 0 01-.132-.028.343.343 0 01-.111-.082.405.405 0 01-.1-.265v-22.49c0-.208.153-.375.343-.375.19 0 .343.167.343.375v22.49a.404.404 0 01-.1.265.342.342 0 01-.112.082.318.318 0 01-.131.028zm35.047 0a.318.318 0 01-.131-.028.343.343 0 01-.112-.082.402.402 0 01-.1-.265v-22.49c0-.208.154-.375.343-.375.19 0 .344.167.344.375v22.49a.402.402 0 01-.1.265.343.343 0 01-.112.082.318.318 0 01-.132.028zm2.75 0a.318.318 0 01-.132-.028.343.343 0 01-.112-.082.402.402 0 01-.1-.265v-22.49c0-.208.153-.375.343-.375.19 0 .344.167.344.375v22.49a.402.402 0 01-.1.265.343.343 0 01-.112.082.318.318 0 01-.132.028zm1.374 3.748H.352a.318.318 0 01-.131-.028.342.342 0 01-.112-.081.404.404 0 01-.1-.265v-2.25a.404.404 0 01.1-.265.344.344 0 01.112-.08.318.318 0 01.131-.03h43.295a.344.344 0 01.243.11.38.38 0 01.1.266v2.248a.404.404 0 01-.1.266.342.342 0 01-.112.08.318.318 0 01-.131.03zm-42.951-.75h42.607v-1.499H.696v1.5zm31.955-18.741H11.348a.32.32 0 01-.132-.029.343.343 0 01-.111-.081.38.38 0 01-.1-.265.407.407 0 01.1-.265.343.343 0 01.111-.082.316.316 0 01.132-.028H32.65c.045 0 .09.01.132.028a.377.377 0 01.186.203.404.404 0 01-.075.409.341.341 0 01-.111.081.32.32 0 01-.132.029z" fill="currentColor"/><path d="M32.652 43.117a.318.318 0 01-.132-.028.343.343 0 01-.111-.082.402.402 0 01-.1-.265V27c0-.207.153-.375.343-.375.19 0 .343.168.343.375v15.743a.404.404 0 01-.1.265.343.343 0 01-.112.082.318.318 0 01-.131.028zm-21.304 0a.318.318 0 01-.131-.028.343.343 0 01-.112-.082.404.404 0 01-.1-.265V27c0-.207.153-.375.343-.375.19 0 .344.168.344.375v15.743a.407.407 0 01-.1.265.343.343 0 01-.112.082.318.318 0 01-.132.028zm26.801-21.74H5.85c-.19 0-.343-.168-.343-.376 0-.207.153-.375.343-.375h32.3c.19 0 .343.168.343.375s-.154.375-.344.375zm0 2.998H5.85c-.19 0-.343-.168-.343-.375s.153-.375.343-.375h32.3c.19 0 .343.168.343.375s-.154.375-.344.375zm0 17.992h-4.123c-.19 0-.343-.167-.343-.374 0-.208.153-.375.343-.375h4.123c.19 0 .344.167.344.374 0 .208-.154.375-.344.375zm0-5.997h-4.123c-.19 0-.343-.168-.343-.375s.153-.375.343-.375h4.123c.19 0 .344.168.344.375s-.154.375-.344.375zm0-2.999h-4.123c-.19 0-.343-.168-.343-.375s.153-.375.343-.375h4.123c.19 0 .344.168.344.375s-.154.375-.344.375zm0-2.999h-4.123c-.19 0-.343-.167-.343-.374 0-.208.153-.375.343-.375h4.123c.19 0 .344.167.344.375 0 .207-.154.374-.344.374zm0-2.998h-4.123a.32.32 0 01-.131-.029.343.343 0 01-.112-.081.38.38 0 01-.1-.265.402.402 0 01.1-.265.344.344 0 01.112-.082.316.316 0 01.131-.028h4.123c.045 0 .09.01.132.028a.38.38 0 01.212.346.404.404 0 01-.1.266.344.344 0 01-.112.081.32.32 0 01-.132.029zm0 11.995h-4.123a.318.318 0 01-.131-.029.344.344 0 01-.112-.081.402.402 0 010-.53.341.341 0 01.112-.082.32.32 0 01.131-.028h4.123c.046 0 .09.01.132.028a.377.377 0 01.186.203.404.404 0 01-.075.409.343.343 0 01-.111.081.318.318 0 01-.132.029z" fill="currentColor"/><path d="M36.088 42.367a.32.32 0 01-.132-.028.344.344 0 01-.111-.081.38.38 0 01-.1-.266v-2.999c0-.207.153-.375.343-.375.19 0 .343.168.343.375v3a.404.404 0 01-.1.265.344.344 0 01-.112.08.32.32 0 01-.131.03zm0-5.997a.318.318 0 01-.132-.029.344.344 0 01-.111-.08.38.38 0 01-.1-.266v-3c0-.207.153-.374.343-.374.19 0 .343.167.343.374v3a.404.404 0 01-.1.265.344.344 0 01-.112.081.318.318 0 01-.131.029zm0-5.997a.318.318 0 01-.132-.028.344.344 0 01-.111-.082.38.38 0 01-.1-.265v-3c0-.206.153-.374.343-.374.19 0 .343.168.343.375v3a.404.404 0 01-.1.264.344.344 0 01-.112.082.318.318 0 01-.131.028zM9.974 42.367H5.85c-.19 0-.344-.167-.344-.374 0-.208.154-.375.344-.375h4.123c.19 0 .343.167.343.374 0 .208-.153.375-.343.375zm0-5.997H5.85c-.19 0-.344-.168-.344-.375s.154-.375.344-.375h4.123c.19 0 .343.168.343.375s-.153.375-.343.375zm0-2.999H5.85c-.19 0-.344-.168-.344-.375s.154-.375.344-.375h4.123c.19 0 .343.168.343.375s-.153.375-.343.375zm0-2.999H5.85c-.19 0-.344-.167-.344-.374 0-.208.154-.375.344-.375h4.123c.19 0 .343.167.343.375 0 .207-.153.374-.343.374zm0-2.998H5.85a.32.32 0 01-.132-.029.343.343 0 01-.111-.081.405.405 0 010-.53.343.343 0 01.111-.082.316.316 0 01.132-.028h4.123a.328.328 0 01.243.11.38.38 0 01.1.265.404.404 0 01-.1.265.343.343 0 01-.112.081.32.32 0 01-.131.029zm0 11.995H5.85a.318.318 0 01-.132-.029.343.343 0 01-.111-.081.405.405 0 010-.53.342.342 0 01.111-.082.32.32 0 01.132-.028h4.123c.045 0 .09.01.131.028a.376.376 0 01.186.203.404.404 0 01-.074.409.343.343 0 01-.112.081.318.318 0 01-.131.029z" fill="currentColor"/><path d="M7.912 42.367a.318.318 0 01-.131-.028.344.344 0 01-.112-.081.405.405 0 01-.1-.265v-3c0-.207.153-.375.343-.375.19 0 .344.168.344.375v3a.405.405 0 01-.1.265.344.344 0 01-.112.08.318.318 0 01-.132.03zm0-5.997a.32.32 0 01-.131-.029.344.344 0 01-.112-.08.404.404 0 01-.1-.265v-3c0-.208.153-.375.343-.375.19 0 .344.167.344.374v3a.404.404 0 01-.1.265.344.344 0 01-.112.081.32.32 0 01-.132.029zm0-5.997a.318.318 0 01-.131-.028.342.342 0 01-.112-.082.404.404 0 01-.1-.265v-3c0-.206.153-.374.343-.374.19 0 .344.168.344.375v3a.404.404 0 01-.1.264.342.342 0 01-.112.082.318.318 0 01-.132.028zm28.176-5.997a.318.318 0 01-.132-.028.344.344 0 01-.111-.081.404.404 0 01-.1-.265v-3c0-.207.153-.375.343-.375.19 0 .343.168.343.375v3a.407.407 0 01-.1.265.344.344 0 01-.112.08.318.318 0 01-.131.03zm-28.176 0a.318.318 0 01-.131-.028.344.344 0 01-.112-.081.405.405 0 01-.1-.265v-3c0-.207.153-.375.343-.375.19 0 .344.168.344.375v3a.405.405 0 01-.1.265.344.344 0 01-.112.08.318.318 0 01-.132.03zm6.185 0a.318.318 0 01-.131-.028.344.344 0 01-.112-.081.404.404 0 01-.1-.265v-3c0-.207.153-.375.343-.375.19 0 .344.168.344.375v3a.407.407 0 01-.101.265.344.344 0 01-.111.08.318.318 0 01-.132.03zm5.498 0a.318.318 0 01-.132-.028.344.344 0 01-.111-.081.38.38 0 01-.1-.265v-3c0-.207.153-.375.343-.375.19 0 .343.168.343.375v3a.402.402 0 01-.1.265.344.344 0 01-.112.08.318.318 0 01-.131.03zm5.497 0a.318.318 0 01-.131-.028.344.344 0 01-.112-.081.38.38 0 01-.1-.265v-3c0-.207.153-.375.343-.375.19 0 .344.168.344.375v3a.402.402 0 01-.1.265.344.344 0 01-.112.08.318.318 0 01-.132.03zm5.498 0a.318.318 0 01-.131-.028.343.343 0 01-.112-.081.404.404 0 01-.1-.265v-3a.404.404 0 01.1-.265.344.344 0 01.111-.081.318.318 0 01.264 0c.041.018.08.046.111.081a.38.38 0 01.1.265v3a.407.407 0 01-.1.265.344.344 0 01-.111.08.318.318 0 01-.132.03zm-17.18 18.74a.318.318 0 01-.132-.027.343.343 0 01-.111-.082.402.402 0 01-.1-.265v-.75c0-.207.153-.374.343-.374.19 0 .343.167.343.374v.75a.404.404 0 01-.1.265.341.341 0 01-.112.082.318.318 0 01-.131.028zm3.436 0a.318.318 0 01-.132-.027.341.341 0 01-.111-.082.404.404 0 01-.1-.265v-1.5c0-.206.153-.374.343-.374.19 0 .343.168.343.375v1.5a.402.402 0 01-.1.264.343.343 0 01-.112.082.318.318 0 01-.131.028zm3.436 0a.318.318 0 01-.132-.027.341.341 0 01-.111-.082.38.38 0 01-.1-.265v-2.249c0-.207.153-.375.343-.375.19 0 .344.168.344.375v2.25a.406.406 0 01-.101.264.344.344 0 01-.112.082.318.318 0 01-.131.028zm3.436 0a.318.318 0 01-.132-.027.341.341 0 01-.111-.082.402.402 0 01-.1-.265v-2.249c0-.207.153-.375.343-.375.19 0 .343.168.343.375v2.25a.402.402 0 01-.1.264.341.341 0 01-.111.082.318.318 0 01-.132.028zm3.436 0a.318.318 0 01-.131-.027.342.342 0 01-.112-.082.404.404 0 01-.1-.265v-1.5c0-.206.153-.374.343-.374.19 0 .344.168.344.375v1.5a.404.404 0 01-.1.264.341.341 0 01-.112.082.318.318 0 01-.132.028zm3.436 0a.318.318 0 01-.131-.027.344.344 0 01-.112-.082.404.404 0 01-.1-.265v-.75a.404.404 0 01.1-.265.343.343 0 01.111-.08.318.318 0 01.264 0c.041.018.08.046.111.08a.38.38 0 01.1.266v.75a.406.406 0 01-.1.264.343.343 0 01-.111.082.318.318 0 01-.132.028zm-13.744-2.998a.32.32 0 01-.132-.029.344.344 0 01-.111-.081.404.404 0 01-.1-.265c0-5.367 5.066-9.85 5.282-10.038a.326.326 0 01.483.058.388.388 0 01.073.276.399.399 0 01-.127.251c-.05.044-5.025 4.45-5.025 9.453a.402.402 0 01-.1.265.344.344 0 01-.112.081.32.32 0 01-.131.029zm2.061-.75a.32.32 0 01-.131-.029.344.344 0 01-.111-.08.402.402 0 01-.1-.265c-.001-3.132 3.075-6.15 3.206-6.278a.327.327 0 01.249-.093c.09.006.176.05.236.124a.397.397 0 01-.028.53c-.03.028-2.977 2.924-2.977 5.716a.404.404 0 01-.1.265.344.344 0 01-.112.081.32.32 0 01-.132.029z" fill="currentColor"/><path d="M25.091 39.368a.32.32 0 01-.131-.029.341.341 0 01-.112-.08.38.38 0 01-.1-.266c0-2.792-2.947-5.688-2.977-5.717a.402.402 0 01-.028-.529.335.335 0 01.237-.124c.09-.006.18.027.248.093.131.127 3.207 3.146 3.207 6.277a.406.406 0 01-.1.265.341.341 0 01-.112.081.32.32 0 01-.132.029zm2.062.749a.318.318 0 01-.131-.028.343.343 0 01-.112-.081.404.404 0 01-.1-.265c0-5.01-4.974-9.409-5.025-9.453a.4.4 0 01-.054-.527.325.325 0 01.483-.059c.216.189 5.283 4.672 5.283 10.039a.407.407 0 01-.1.265.343.343 0 01-.112.081.318.318 0 01-.132.029zM42.96 11.63H1.04c-.19 0-.344-.167-.344-.375 0-.207.154-.375.344-.375h41.92c.19 0 .343.168.343.375 0 .208-.153.375-.343.375z" fill="currentColor"/><path d="M42.96 19.127a.318.318 0 01-.132-.028.343.343 0 01-.111-.082.38.38 0 01-.1-.265v-7.497a.406.406 0 01.1-.265.344.344 0 01.111-.081.32.32 0 01.375.081.404.404 0 01.1.265v7.497a.407.407 0 01-.1.265.343.343 0 01-.112.082.32.32 0 01-.131.028z" fill="currentColor"/><path d="M42.96 19.127H1.04a.32.32 0 01-.13-.027.345.345 0 01-.112-.082.405.405 0 010-.53.343.343 0 01.112-.081.32.32 0 01.131-.029h41.92a.343.343 0 01.243.11.402.402 0 010 .53.341.341 0 01-.112.082.32.32 0 01-.131.028zM7.568 15.38c-4.286 0-5.415-2.356-5.461-2.457a.406.406 0 01-.019-.286.367.367 0 01.173-.217.317.317 0 01.26-.02c.087.03.158.097.2.185.04.084 1.02 2.045 4.847 2.045 3.893 0 5.562-2.094 5.579-2.115a.35.35 0 01.104-.092.321.321 0 01.38.046.384.384 0 01.12.254.398.398 0 01-.077.273c-.075.097-1.87 2.384-6.106 2.384z" fill="currentColor"/><path d="M7.569 16.878c-4.287 0-5.416-2.356-5.462-2.456a.406.406 0 01-.019-.286.367.367 0 01.173-.217.317.317 0 01.26-.021.35.35 0 01.2.186c.04.084 1.02 2.044 4.848 2.044 3.892 0 5.561-2.094 5.578-2.115a.349.349 0 01.104-.091.324.324 0 01.262-.025.336.336 0 01.117.07.397.397 0 01.044.526c-.075.099-1.87 2.385-6.105 2.385zm28.862-1.5c-4.235 0-6.03-2.286-6.105-2.383a.398.398 0 01.044-.526.323.323 0 01.483.045c.016.021 1.686 2.115 5.578 2.115 3.828 0 4.808-1.961 4.849-2.045.086-.181.292-.258.461-.162a.39.39 0 01.152.5c-.046.1-1.175 2.457-5.462 2.457z" fill="currentColor"/><path d="M36.431 16.878c-4.235 0-6.03-2.286-6.105-2.384a.398.398 0 01.044-.526.324.324 0 01.483.045c.016.021 1.686 2.115 5.578 2.115 3.828 0 4.808-1.961 4.848-2.044.087-.183.293-.258.462-.162a.39.39 0 01.152.5c-.046.1-1.175 2.456-5.462 2.456z" fill="currentColor"/><path d="M22 17.628c-5.916 0-8.717-2.982-8.833-3.109a.393.393 0 01-.1-.264c0-.1.035-.195.1-.265a.33.33 0 01.242-.11.33.33 0 01.243.108c.027.03 2.737 2.89 8.348 2.89 5.634 0 8.32-2.86 8.347-2.889a.344.344 0 01.112-.081.32.32 0 01.374.081.38.38 0 01.1.265.407.407 0 01-.1.265c-.117.127-2.918 3.109-8.833 3.109z" fill="currentColor"/><path d="M22 16.128c-5.916 0-8.717-2.982-8.833-3.108a.393.393 0 01-.1-.265c0-.099.035-.194.1-.264a.33.33 0 01.242-.11.33.33 0 01.243.108c.027.03 2.737 2.89 8.348 2.89 5.634 0 8.32-2.86 8.347-2.89a.341.341 0 01.112-.08.318.318 0 01.374.08.38.38 0 01.1.266.406.406 0 01-.1.265c-.117.127-2.918 3.108-8.833 3.108zm18.898 23.24a.316.316 0 01-.131-.028.343.343 0 01-.112-.081.404.404 0 01-.1-.265v-5.248c0-.207.153-.375.343-.375.19 0 .344.168.344.375v5.248a.404.404 0 01-.1.265.343.343 0 01-.112.081.316.316 0 01-.132.029zm0-9.745a.32.32 0 01-.131-.029.343.343 0 01-.112-.081.38.38 0 01-.1-.265V24c0-.207.153-.375.343-.375.19 0 .344.168.344.375v5.248a.404.404 0 01-.1.265.345.345 0 01-.112.081.32.32 0 01-.132.029zM3.122 31.872c-.19 0-.347-.168-.347-.375s.15-.375.34-.375h.007c.19 0 .344.168.344.375s-.154.375-.344.375zm-.02 7.497a.316.316 0 01-.132-.029.343.343 0 01-.111-.081.405.405 0 01-.1-.265v-5.248c-.001-.207.153-.375.343-.375.19 0 .343.168.343.375v5.248a.405.405 0 01-.1.265.343.343 0 01-.112.081.316.316 0 01-.131.029zm0-9.746a.32.32 0 01-.132-.029.343.343 0 01-.111-.081.404.404 0 01-.1-.265V24c-.001-.207.153-.375.343-.375.19 0 .343.168.343.375v5.248a.404.404 0 01-.1.265.343.343 0 01-.112.081.32.32 0 01-.131.029zm-.688 15.743a.318.318 0 01-.131-.029.343.343 0 01-.112-.08.405.405 0 01-.1-.265v-.75c0-.208.154-.375.343-.375.19 0 .344.167.344.375v.75a.405.405 0 01-.1.264.343.343 0 01-.112.081.318.318 0 01-.132.029zm2.062 0a.318.318 0 01-.131-.029.343.343 0 01-.112-.08.405.405 0 01-.1-.265v-.75c0-.208.153-.375.343-.375.19 0 .344.167.344.375v.75a.405.405 0 01-.1.264.343.343 0 01-.112.081.318.318 0 01-.132.029zm2.062 0a.318.318 0 01-.132-.029.343.343 0 01-.111-.08.405.405 0 01-.1-.265v-.75c0-.208.153-.375.343-.375.19 0 .343.167.343.375v.75a.405.405 0 01-.1.264.343.343 0 01-.112.081.318.318 0 01-.131.029zm2.061 0a.318.318 0 01-.131-.029.343.343 0 01-.112-.08.405.405 0 01-.1-.265v-.75c0-.208.153-.375.343-.375.19 0 .344.167.344.375v.75a.405.405 0 01-.1.264.343.343 0 01-.112.081.318.318 0 01-.132.029zm2.062 0a.32.32 0 01-.132-.028.344.344 0 01-.111-.082.402.402 0 01-.1-.265v-.75c0-.207.153-.374.343-.374.19 0 .344.167.344.375v.75a.404.404 0 01-.101.264.344.344 0 01-.111.082.32.32 0 01-.132.028zm2.062 0a.32.32 0 01-.132-.028.344.344 0 01-.111-.082.38.38 0 01-.101-.265v-.75c0-.207.154-.374.344-.374.19 0 .343.167.343.375v.75a.404.404 0 01-.1.264.344.344 0 01-.112.082.32.32 0 01-.131.028zm2.061 0a.32.32 0 01-.131-.028.344.344 0 01-.112-.082.402.402 0 01-.1-.265v-.75c0-.207.153-.374.343-.374.19 0 .344.167.344.375v.75a.404.404 0 01-.1.264.344.344 0 01-.112.082.32.32 0 01-.132.028zm2.062 0a.32.32 0 01-.132-.028.344.344 0 01-.111-.082.404.404 0 01-.1-.265v-.75c0-.207.153-.374.343-.374.19 0 .343.167.343.375v.75a.402.402 0 01-.1.264.344.344 0 01-.112.082.32.32 0 01-.131.028zm2.061 0a.32.32 0 01-.131-.028.344.344 0 01-.111-.082.38.38 0 01-.101-.265v-.75c0-.207.154-.374.343-.374.19 0 .344.167.344.375v.75a.402.402 0 01-.1.264.344.344 0 01-.112.082.32.32 0 01-.132.028zm2.063 0a.32.32 0 01-.132-.028.344.344 0 01-.112-.082.404.404 0 01-.1-.265v-.75c0-.207.153-.374.343-.374.19 0 .344.167.344.375v.75a.407.407 0 01-.1.264.344.344 0 01-.112.082.32.32 0 01-.132.028zm2.06 0a.32.32 0 01-.13-.028.344.344 0 01-.112-.082.38.38 0 01-.1-.265v-.75a.406.406 0 01.1-.265.343.343 0 01.111-.08.316.316 0 01.263 0c.042.018.08.046.112.08a.38.38 0 01.1.266v.75a.407.407 0 01-.1.264.345.345 0 01-.112.082.32.32 0 01-.131.028zm2.062 0a.32.32 0 01-.131-.028.344.344 0 01-.112-.082.402.402 0 01-.1-.265v-.75c0-.207.153-.374.343-.374.19 0 .344.167.344.375v.75a.404.404 0 01-.1.264.344.344 0 01-.112.082.32.32 0 01-.132.028zm2.062 0a.32.32 0 01-.131-.028.344.344 0 01-.112-.082.38.38 0 01-.1-.265v-.75c0-.207.153-.374.343-.374.19 0 .344.167.344.375v.75a.404.404 0 01-.1.264.344.344 0 01-.112.082.32.32 0 01-.132.028zm2.062 0a.32.32 0 01-.132-.028.344.344 0 01-.111-.082.38.38 0 01-.1-.265v-.75a.402.402 0 01.1-.265.344.344 0 01.111-.08.318.318 0 01.263 0c.042.018.08.046.112.08a.404.404 0 01.1.265v.75a.404.404 0 01-.1.265.343.343 0 01-.112.081.318.318 0 01-.131.029zm2.061 0a.32.32 0 01-.131-.028.344.344 0 01-.112-.082.38.38 0 01-.1-.265v-.75c0-.207.153-.374.343-.374.19 0 .344.167.344.375v.75a.407.407 0 01-.1.264.344.344 0 01-.112.082.32.32 0 01-.132.028zm2.062 0a.32.32 0 01-.132-.028.344.344 0 01-.111-.082.404.404 0 01-.1-.265v-.75c0-.207.153-.374.343-.374.19 0 .343.167.343.375v.75a.404.404 0 01-.1.264.344.344 0 01-.112.082.32.32 0 01-.131.028zm2.061 0a.318.318 0 01-.13-.029.343.343 0 01-.112-.08.38.38 0 01-.101-.266v-.75a.404.404 0 01.1-.265.343.343 0 01.112-.08.316.316 0 01.263 0c.042.018.08.046.112.08a.38.38 0 01.1.266v.75a.402.402 0 01-.1.264.344.344 0 01-.112.082.32.32 0 01-.131.028zm2.062 0a.32.32 0 01-.131-.028.344.344 0 01-.112-.082.38.38 0 01-.1-.265v-.75c0-.207.153-.374.343-.374.19 0 .344.167.344.375v.75a.404.404 0 01-.1.264.345.345 0 01-.112.082.32.32 0 01-.132.028zm2.062 0a.32.32 0 01-.132-.028.344.344 0 01-.111-.082.404.404 0 01-.1-.265v-.75c0-.207.153-.374.343-.374.19 0 .343.167.343.375v.75a.407.407 0 01-.1.264.344.344 0 01-.112.082.32.32 0 01-.131.028zm2.062 0a.32.32 0 01-.132-.028.345.345 0 01-.112-.082.38.38 0 01-.1-.265v-.75a.406.406 0 01.1-.265.344.344 0 01.112-.08.318.318 0 01.263 0c.042.018.08.046.111.08a.38.38 0 01.101.266v.75a.407.407 0 01-.1.264.343.343 0 01-.112.081.318.318 0 01-.131.029zM14.784 10.13a.318.318 0 01-.131-.028.343.343 0 01-.112-.08.402.402 0 01-.1-.265v-2.25c0-.207.153-.375.343-.375.19 0 .344.168.344.375v2.249a.404.404 0 01-.1.265.343.343 0 01-.112.081.318.318 0 01-.132.029zm3.436 0a.318.318 0 01-.131-.028.343.343 0 01-.112-.08.38.38 0 01-.1-.266v-2.25c0-.206.153-.374.343-.374.19 0 .344.168.344.375v2.249a.402.402 0 01-.1.265.343.343 0 01-.112.081.318.318 0 01-.132.029z" fill="currentColor"/><path d="M18.22 7.882h-3.436c-.19 0-.343-.168-.343-.375s.153-.375.343-.375h3.436c.19 0 .344.168.344.375s-.154.375-.344.375zm-1.718-.75c-.568 0-1.03-.504-1.03-1.124 0-.437.32-1.875 1.03-1.875s1.031 1.438 1.031 1.875c0 .62-.462 1.124-1.03 1.124zm0-2.217c-.147.18-.343.783-.343 1.093 0 .206.154.374.343.374.19 0 .344-.168.344-.374 0-.31-.197-.913-.344-1.093zm3.78 5.216a.318.318 0 01-.132-.029.343.343 0 01-.111-.08.38.38 0 01-.1-.266V4.508c0-.207.153-.375.343-.375.19 0 .344.168.344.375v5.248a.406.406 0 01-.101.265.346.346 0 01-.112.081.32.32 0 01-.131.029zm3.436 0a.318.318 0 01-.131-.029.343.343 0 01-.112-.08.404.404 0 01-.1-.265v-5.25c0-.207.153-.375.343-.375.19 0 .344.168.344.375v5.248a.404.404 0 01-.101.265.344.344 0 01-.111.081.32.32 0 01-.132.029z" fill="currentColor"/><path d="M23.718 4.883h-3.436c-.19 0-.344-.168-.344-.375s.154-.375.344-.375h3.436c.19 0 .344.168.344.375s-.154.375-.344.375zM22 4.133c-.569 0-1.03-.504-1.03-1.124 0-.437.32-1.874 1.03-1.874s1.03 1.437 1.03 1.874c0 .62-.462 1.124-1.03 1.124zm0-2.217c-.147.18-.344.783-.344 1.093 0 .1.037.194.101.265a.33.33 0 00.243.11.33.33 0 00.243-.11c.064-.07.1-.166.1-.265 0-.31-.196-.913-.343-1.093zm3.78 8.215a.32.32 0 01-.132-.029.343.343 0 01-.111-.08.404.404 0 01-.1-.265v-2.25a.404.404 0 01.1-.265.343.343 0 01.111-.081.319.319 0 01.263 0c.042.018.08.046.112.08a.38.38 0 01.1.266v2.249a.406.406 0 01-.1.265.343.343 0 01-.112.081.318.318 0 01-.132.029zm3.436 0a.318.318 0 01-.132-.029.343.343 0 01-.111-.08.38.38 0 01-.1-.266v-2.25a.404.404 0 01.1-.264.343.343 0 01.111-.081.319.319 0 01.263 0c.042.018.08.046.112.08a.404.404 0 01.1.265v2.25a.404.404 0 01-.1.265.343.343 0 01-.112.081.319.319 0 01-.131.029z" fill="currentColor"/><path d="M29.216 7.882h-3.437c-.19 0-.343-.168-.343-.375s.154-.375.343-.375h3.437c.19 0 .343.168.343.375s-.154.375-.343.375zm-1.718-.75c-.569 0-1.031-.504-1.031-1.124 0-.437.321-1.875 1.03-1.875.71 0 1.032 1.438 1.032 1.875 0 .62-.463 1.124-1.031 1.124zm0-2.217c-.148.179-.344.783-.344 1.093 0 .206.154.374.344.374.189 0 .343-.168.343-.374 0-.31-.196-.914-.343-1.093z" fill="currentColor"/></symbol><symbol id="offert_3" viewBox="0 0 44 48" fill="none" xmlns="http://www.w3.org/2000/svg"><path d="M34.836 7.353H9.164L0 16.033v24.614h5.678V21.402h2.01v12.543h4.968V21.401h18.687v12.543h4.968V21.401h2.01v19.247H44V16.032l-9.164-8.68zM9.693 8.9h24.613l7.288 6.903H2.404L9.694 8.9zM4.258 39.1H1.42V21.4h2.838v17.7zm6.979-6.704H9.108V21.401h2.129v10.994zm23.655 0h-2.13V21.401h2.13v10.994zM42.58 39.1h-2.839V21.4h2.84v17.7zm0-19.246H1.42v-2.887h41.16v2.887z" fill="currentColor" fill-opacity=".8"/></symbol><symbol id="offert_4" viewBox="0 0 48 48" fill="none" xmlns="http://www.w3.org/2000/svg"><path d="M2.722 20.263a.376.376 0 00-.46.265l-1.5 5.625a.375.375 0 10.725.194l1.5-5.625a.375.375 0 00-.265-.46zm44.146 5.913l-1.125-5.625a.375.375 0 00-.735.147l1.124 5.625a.375.375 0 10.736-.147z" fill="currentColor"/><path d="M45.375 20.25H41.25a.375.375 0 100 .75h4.125a.375.375 0 100-.75zm-38.625 0H2.625a.375.375 0 100 .75H6.75a.375.375 0 100-.75z" fill="currentColor"/><path d="M24 14.25a.375.375 0 00.375-.375V13.5a1.877 1.877 0 00-1.875-1.875H8.25A1.877 1.877 0 006.375 13.5v7.125c0 1.034.841 1.875 1.875 1.875H22.5a1.877 1.877 0 001.875-1.875V16.5a.375.375 0 10-.75 0v4.125c0 .62-.505 1.125-1.125 1.125H8.25c-.62 0-1.125-.505-1.125-1.125V13.5c0-.62.505-1.125 1.125-1.125H22.5c.62 0 1.125.505 1.125 1.125v.375c0 .207.168.375.375.375z" fill="currentColor"/><path d="M39.75 11.625H25.5a1.877 1.877 0 00-1.875 1.875.375.375 0 10.75 0c0-.62.505-1.125 1.125-1.125h14.25c.62 0 1.125.505 1.125 1.125v7.125c0 .62-.505 1.125-1.125 1.125H25.5c-.62 0-1.125-.505-1.125-1.125a.375.375 0 10-.75 0c0 1.034.841 1.875 1.875 1.875h14.25a1.877 1.877 0 001.875-1.875V13.5a1.877 1.877 0 00-1.875-1.875zm7.875 14.25H.375A.375.375 0 000 26.25v1.5c0 .207.168.375.375.375h47.25A.375.375 0 0048 27.75v-1.5a.375.375 0 00-.375-.375zm-.375 1.5H.75v-.75h46.5v.75zm-1.125-21H1.875a.375.375 0 00-.375.375v1.5c0 .207.168.375.375.375h44.25a.375.375 0 00.375-.375v-1.5a.375.375 0 00-.375-.375zm-.375 1.5H2.25v-.75h43.5v.75z" fill="currentColor"/><path d="M46.875 27.375a.375.375 0 00-.375.375v13.125h-1.875V37.5a.375.375 0 00-.375-.375H3.75a.375.375 0 00-.375.375v3.375H1.5v-12.75h2.25a.375.375 0 100-.75H1.125a.375.375 0 00-.375.375v13.5c0 .207.168.375.375.375H3.75a.375.375 0 00.375-.375v-3.375h39.75v3.375c0 .207.168.375.375.375h2.625a.375.375 0 00.375-.375v-13.5a.375.375 0 00-.375-.375zm-1.5-19.5A.375.375 0 0045 8.25v12.375a.375.375 0 10.75 0V8.25a.375.375 0 00-.375-.375zm-42.75 0a.375.375 0 00-.375.375v12.375a.375.375 0 10.75 0V8.25a.375.375 0 00-.375-.375zm2.625 0a.375.375 0 00-.375.375v7.5a.375.375 0 10.75 0v-7.5a.375.375 0 00-.375-.375zm37.5 0a.375.375 0 00-.375.375v7.5a.375.375 0 10.75 0v-7.5a.375.375 0 00-.375-.375z" fill="currentColor"/><path d="M6.75 15.375h-1.5a.375.375 0 100 .75h1.5a.375.375 0 100-.75zm36 0h-1.5a.375.375 0 100 .75h1.5a.375.375 0 100-.75z" fill="currentColor"/></symbol><symbol id="offert_5" viewBox="0 0 44 44" fill="none" xmlns="http://www.w3.org/2000/svg"><g clip-path="url(#clip0_20_1051)" fill="currentColor" fill-opacity=".8"><path d="M39.76 0H4.24A4.245 4.245 0 000 4.24v28.214a.798.798 0 001.597 0V4.24A2.646 2.646 0 014.24 1.597h35.52a2.646 2.646 0 012.643 2.643v35.52a2.646 2.646 0 01-2.643 2.643H4.24a2.646 2.646 0 01-2.643-2.643v-4.549a.798.798 0 10-1.597 0v4.549A4.245 4.245 0 004.24 44h35.52A4.245 4.245 0 0044 39.76V4.24A4.245 4.245 0 0039.76 0z"/><path d="M38.79 4.412h-5.76a.798.798 0 000 1.597h4.961V37.99H6.01V6.01h24.263a.798.798 0 000-1.597H5.21a.798.798 0 00-.798.798v33.58c0 .44.357.798.798.798h33.58a.798.798 0 00.798-.798V5.21a.798.798 0 00-.798-.798z"/><path d="M22.667 8.683h-6.844a.798.798 0 00-.798.798V27.27a.798.798 0 001.597 0V10.28h6.045c4.48 0 8.125 3.645 8.125 8.125s-3.645 8.125-8.125 8.125h-1.295a.798.798 0 00-.798.798v6.392h-3.952v-3.693a.798.798 0 10-1.597 0v4.492c0 .44.357.798.798.798h5.55a.798.798 0 00.798-.798v-6.392h.496c5.36 0 9.722-4.361 9.722-9.722 0-5.36-4.362-9.722-9.722-9.722z"/><path d="M22.396 13.555h-1.024a.798.798 0 00-.798.798v8.103c0 .441.357.799.798.799h1.024a4.855 4.855 0 004.85-4.85 4.856 4.856 0 00-4.85-4.85zm0 8.103h-.225v-6.506h.225a3.257 3.257 0 013.253 3.253 3.257 3.257 0 01-3.253 3.253z"/></g><defs><clipPath id="clip0_20_1051"><path fill="#fff" d="M0 0h44v44H0z"/></clipPath></defs></symbol><symbol id="offert_6" viewBox="0 0 44 44" fill="none" xmlns="http://www.w3.org/2000/svg"><g clip-path="url(#clip0_20_1064)" fill="currentColor"><path d="M43.298 25.33a.702.702 0 00-.702.703v2.106H1.404v-2.106a.702.702 0 10-1.404 0v17.145c0 .388.314.702.702.702h42.596a.702.702 0 00.702-.702V26.033a.702.702 0 00-.702-.702zm-.702 5.618H6.319a.702.702 0 000 1.404h36.277v10.124H1.404V32.352h2.107a.702.702 0 100-1.404H1.404v-1.404h41.192v1.404z"/><path d="M17.72 26.577a.699.699 0 00.988-.1l7.784-9.536a.702.702 0 00-1.088-.888l-7.784 9.536c-.245.3-.2.743.1.988zm3.457-.987a.702.702 0 001.088.887l7.783-9.534.002-.002a2.008 2.008 0 012.975-.152l1.935 1.935a2.008 2.008 0 01-.152 2.975l-4.643 3.79a.702.702 0 00.888 1.088l4.643-3.79a3.416 3.416 0 00.712-4.49 10.31 10.31 0 016.89-2.615.702.702 0 000-1.404c-2.842 0-5.53.999-7.663 2.83l5.92-5.921a.702.702 0 10-.993-.993l-5.92 5.92a11.702 11.702 0 002.83-7.663.702.702 0 00-1.405 0 10.31 10.31 0 01-2.614 6.89 3.416 3.416 0 00-4.491.712l.002.001c-.032.035-.06.071-.09.106l-7.697 9.43zM3.509 26.735a.702.702 0 00.702-.702V9.019h9.967v17.014a.702.702 0 001.404 0V8.541l2.641-3.701 1.98 2.774H18.33a.702.702 0 000 1.404h2.535v8.405a.702.702 0 001.404 0V8.316a.702.702 0 00-.13-.407l-3.213-4.503V.822a.702.702 0 00-.703-.702H6.852a.702.702 0 00-.702.702v2.584L2.937 7.909a.702.702 0 00-.13.407v17.717c0 .388.314.702.702.702zm4.045-25.21h9.967v1.404H7.554V1.524zm-.34 2.808h9.646l-2.341 3.281H4.871l2.341-3.281zM40.49 26.735a.702.702 0 00.701-.702v-1.167a3.53 3.53 0 00-2.296-3.293.702.702 0 00-.488 1.317 2.12 2.12 0 011.38 1.976v1.167c0 .388.315.702.702.702z"/></g><defs><clipPath id="clip0_20_1064"><path fill="#fff" d="M0 0h44v44H0z"/></clipPath></defs></symbol></defs></svg>