<svg width="55" height="44" viewBox="0 0 55 44" fill="none" xmlns="http://www.w3.org/2000/svg">
<path d="M42.5391 23.7188H37.3828C37.1452 23.7188 36.9531 23.8727 36.9531 24.0625C36.9531 24.2523 37.1452 24.4062 37.3828 24.4062H42.5391C42.7767 24.4062 42.9688 24.2523 42.9688 24.0625C42.9688 23.8727 42.7767 23.7188 42.5391 23.7188Z" fill="currentColor"/>
<path d="M37.3828 23.7188H12.4609C12.2233 23.7188 12.0312 23.8727 12.0312 24.0625C12.0312 24.2523 12.2233 24.4062 12.4609 24.4062H37.3828C37.6204 24.4062 37.8125 24.2523 37.8125 24.0625C37.8125 23.8727 37.6204 23.7188 37.3828 23.7188Z" fill="currentColor"/>
<path d="M38.6719 26.8125H16.3281C16.0905 26.8125 15.8984 26.9665 15.8984 27.1562C15.8984 27.346 16.0905 27.5 16.3281 27.5H38.6719C38.9095 27.5 39.1016 27.346 39.1016 27.1562C39.1016 26.9665 38.9095 26.8125 38.6719 26.8125Z" fill="currentColor"/>
<path d="M38.6719 30.25H16.3281C16.0905 30.25 15.8984 30.404 15.8984 30.5938C15.8984 30.7835 16.0905 30.9375 16.3281 30.9375H38.6719C38.9095 30.9375 39.1016 30.7835 39.1016 30.5938C39.1016 30.404 38.9095 30.25 38.6719 30.25Z" fill="currentColor"/>
<path d="M38.6719 31.625H16.3281C16.0905 31.625 15.8984 31.779 15.8984 31.9688C15.8984 32.1585 16.0905 32.3125 16.3281 32.3125H38.6719C38.9095 32.3125 39.1016 32.1585 39.1016 31.9688C39.1016 31.779 38.9095 31.625 38.6719 31.625Z" fill="currentColor"/>
<path d="M36.9531 0H17.1875C16.9499 0 16.7578 0.154 16.7578 0.34375C16.7578 0.5335 16.9499 0.6875 17.1875 0.6875H36.9531C37.1907 0.6875 37.3828 0.5335 37.3828 0.34375C37.3828 0.154 37.1907 0 36.9531 0Z" fill="currentColor"/>
<path d="M36.9531 16.1562H18.0469C17.8093 16.1562 17.6172 16.3102 17.6172 16.5C17.6172 16.6898 17.8093 16.8438 18.0469 16.8438H36.9531C37.1907 16.8438 37.3828 16.6898 37.3828 16.5C37.3828 16.3102 37.1907 16.1562 36.9531 16.1562Z" fill="currentColor"/>
<path d="M40.8203 21.6562H14.1797C12.995 21.6562 12.0312 22.4273 12.0312 23.375V24.0625C12.0312 24.2522 12.2233 24.4062 12.4609 24.4062C12.6986 24.4062 12.8906 24.2522 12.8906 24.0625V23.375C12.8906 22.8064 13.469 22.3438 14.1797 22.3438H40.8203C41.531 22.3438 42.1094 22.8064 42.1094 23.375V24.0625C42.1094 24.2522 42.3014 24.4062 42.5391 24.4062C42.7767 24.4062 42.9688 24.2522 42.9688 24.0625V23.375C42.9688 22.4273 42.005 21.6562 40.8203 21.6562Z" fill="currentColor"/>
<path d="M16.3281 23.7188C16.0905 23.7188 15.8984 23.8727 15.8984 24.0625V43.3125H12.8906V24.0625C12.8906 23.8727 12.6986 23.7188 12.4609 23.7188C12.2233 23.7188 12.0312 23.8727 12.0312 24.0625V43.6562C12.0312 43.846 12.2233 44 12.4609 44H16.3281C16.5657 44 16.7578 43.846 16.7578 43.6562V24.0625C16.7578 23.8727 16.5657 23.7188 16.3281 23.7188Z" fill="currentColor"/>
<path d="M42.5391 23.7188C42.3014 23.7188 42.1094 23.8727 42.1094 24.0625V43.3125H39.1016V24.0625C39.1016 23.8727 38.9095 23.7188 38.6719 23.7188C38.4343 23.7188 38.2422 23.8727 38.2422 24.0625V43.6562C38.2422 43.846 38.4343 44 38.6719 44H42.5391C42.7767 44 42.9688 43.846 42.9688 43.6562V24.0625C42.9688 23.8727 42.7767 23.7188 42.5391 23.7188Z" fill="currentColor"/>
<path d="M35.6641 3.4375H19.3359C18.1513 3.4375 17.1875 4.20853 17.1875 5.15625V13.75C17.1875 14.6977 18.1513 15.4688 19.3359 15.4688H35.6641C36.8487 15.4688 37.8125 14.6977 37.8125 13.75V5.15625C37.8125 4.20853 36.8487 3.4375 35.6641 3.4375ZM36.9531 13.75C36.9531 14.3186 36.3748 14.7812 35.6641 14.7812H19.3359C18.6252 14.7812 18.0469 14.3186 18.0469 13.75V5.15625C18.0469 4.58769 18.6252 4.125 19.3359 4.125H35.6641C36.3748 4.125 36.9531 4.58769 36.9531 5.15625V13.75Z" fill="currentColor"/>
<path d="M18.0469 0H14.1797C13.9421 0 13.75 0.154 13.75 0.34375V22C13.75 22.1898 13.9421 22.3438 14.1797 22.3438C14.4173 22.3438 14.6094 22.1898 14.6094 22V0.6875H17.6172V4.125C17.6172 4.31475 17.8093 4.46875 18.0469 4.46875C18.2845 4.46875 18.4766 4.31475 18.4766 4.125V0.34375C18.4766 0.154 18.2845 0 18.0469 0Z" fill="currentColor"/>
<path d="M18.0469 14.4375C17.8093 14.4375 17.6172 14.5915 17.6172 14.7812V22C17.6172 22.1898 17.8093 22.3438 18.0469 22.3438C18.2845 22.3438 18.4766 22.1898 18.4766 22V14.7812C18.4766 14.5915 18.2845 14.4375 18.0469 14.4375Z" fill="currentColor"/>
<path d="M36.9531 14.4375C36.7155 14.4375 36.5234 14.5915 36.5234 14.7812V22C36.5234 22.1898 36.7155 22.3438 36.9531 22.3438C37.1907 22.3438 37.3828 22.1898 37.3828 22V14.7812C37.3828 14.5915 37.1907 14.4375 36.9531 14.4375Z" fill="currentColor"/>
<path d="M40.8203 0H36.9531C36.7155 0 36.5234 0.154 36.5234 0.34375V4.125C36.5234 4.31475 36.7155 4.46875 36.9531 4.46875C37.1907 4.46875 37.3828 4.31475 37.3828 4.125V0.6875H40.3906V22C40.3906 22.1898 40.5827 22.3438 40.8203 22.3438C41.0579 22.3438 41.25 22.1898 41.25 22V0.34375C41.25 0.154 41.0579 0 40.8203 0Z" fill="currentColor"/>
<path d="M30.5078 5.15625H28.7891C28.5514 5.15625 28.3594 5.31025 28.3594 5.5C28.3594 5.68975 28.5514 5.84375 28.7891 5.84375H30.5078C30.7454 5.84375 30.9375 5.68975 30.9375 5.5C30.9375 5.31025 30.7454 5.15625 30.5078 5.15625Z" fill="currentColor"/>
<path d="M35.2344 5.15625H32.2266C31.9889 5.15625 31.7969 5.31025 31.7969 5.5C31.7969 5.68975 31.9889 5.84375 32.2266 5.84375H34.8047V7.21875C34.8047 7.4085 34.9968 7.5625 35.2344 7.5625C35.472 7.5625 35.6641 7.4085 35.6641 7.21875V5.5C35.6641 5.31025 35.472 5.15625 35.2344 5.15625Z" fill="currentColor"/>

</svg>
