<svg width="55" height="44" fill="none" xmlns="http://www.w3.org/2000/svg"><path d="M42.54 23.719h-5.157c-.238 0-.43.154-.43.343 0 .19.192.344.43.344h5.156c.238 0 .43-.154.43-.343 0-.19-.192-.344-.43-.344z" fill="currentColor"/><path d="M37.383 23.719H12.46c-.238 0-.43.154-.43.343 0 .19.192.344.43.344h24.922c.237 0 .43-.154.43-.343 0-.19-.193-.344-.43-.344zm1.289 3.094H16.328c-.238 0-.43.154-.43.343 0 .19.192.344.43.344h22.344c.238 0 .43-.154.43-.344 0-.19-.192-.343-.43-.343zm0 3.437H16.328c-.238 0-.43.154-.43.344 0 .19.192.343.43.343h22.344c.238 0 .43-.154.43-.343 0-.19-.192-.344-.43-.344zm0 1.375H16.328c-.238 0-.43.154-.43.344 0 .19.192.343.43.343h22.344c.238 0 .43-.154.43-.343 0-.19-.192-.344-.43-.344zM36.953 0H17.187c-.237 0-.43.154-.43.344 0 .19.193.344.43.344h19.766c.238 0 .43-.154.43-.344 0-.19-.192-.344-.43-.344zm0 16.156H18.047c-.238 0-.43.154-.43.344 0 .19.192.344.43.344h18.906c.238 0 .43-.154.43-.344 0-.19-.192-.344-.43-.344z" fill="currentColor"/><path d="M40.82 21.656H14.18c-1.185 0-2.149.771-2.149 1.719v.688c0 .19.192.343.43.343s.43-.154.43-.343v-.688c0-.569.578-1.031 1.289-1.031h26.64c.711 0 1.29.462 1.29 1.031v.688c0 .19.191.343.43.343.237 0 .429-.154.429-.343v-.688c0-.948-.964-1.719-2.149-1.719z" fill="currentColor"/><path d="M16.328 23.719c-.238 0-.43.154-.43.343v19.25h-3.007v-19.25c0-.19-.192-.343-.43-.343s-.43.154-.43.343v19.594c0 .19.192.344.43.344h3.867c.238 0 .43-.154.43-.344V24.063c0-.19-.192-.344-.43-.344zm26.212 0c-.239 0-.43.154-.43.343v19.25h-3.008v-19.25c0-.19-.192-.343-.43-.343s-.43.154-.43.343v19.594c0 .19.192.344.43.344h3.867c.238 0 .43-.154.43-.344V24.063c0-.19-.192-.344-.43-.344zM35.664 3.438H19.336c-1.185 0-2.148.77-2.148 1.718v8.594c0 .948.963 1.719 2.148 1.719h16.328c1.185 0 2.148-.771 2.148-1.719V5.156c0-.947-.963-1.718-2.148-1.718zm1.29 10.312c0 .569-.58 1.031-1.29 1.031H19.336c-.71 0-1.29-.462-1.29-1.031V5.156c0-.568.58-1.031 1.29-1.031h16.328c.71 0 1.29.463 1.29 1.031v8.594z" fill="currentColor"/><path d="M18.047 0H14.18c-.238 0-.43.154-.43.344V22c0 .19.192.344.43.344.237 0 .43-.154.43-.344V.687h3.007v3.438c0 .19.192.344.43.344s.43-.154.43-.344V.344c0-.19-.192-.344-.43-.344zm0 14.438c-.238 0-.43.153-.43.343V22c0 .19.192.344.43.344s.43-.154.43-.344v-7.219c0-.19-.192-.344-.43-.344zm18.906 0c-.238 0-.43.153-.43.343V22c0 .19.192.344.43.344s.43-.154.43-.344v-7.219c0-.19-.192-.344-.43-.344zM40.82 0h-3.867c-.238 0-.43.154-.43.344v3.781c0 .19.192.344.43.344s.43-.154.43-.344V.687h3.008V22c0 .19.192.344.43.344.237 0 .429-.154.429-.344V.344c0-.19-.192-.344-.43-.344zM30.508 5.156h-1.719c-.238 0-.43.154-.43.344 0 .19.192.344.43.344h1.719c.237 0 .43-.154.43-.344 0-.19-.193-.344-.43-.344zm4.726 0h-3.007c-.238 0-.43.154-.43.344 0 .19.192.344.43.344h2.578v1.375c0 .19.192.343.43.343.237 0 .43-.154.43-.343V5.5c0-.19-.193-.344-.43-.344z" fill="currentColor"/></svg>