<svg width="44" height="48" fill="none" xmlns="http://www.w3.org/2000/svg"><path d="M1.04 19.127a.32.32 0 01-.132-.028.345.345 0 01-.111-.082.38.38 0 01-.101-.265v-7.497c0-.207.154-.375.344-.375.19 0 .343.168.343.375v7.497a.404.404 0 01-.1.265.344.344 0 01-.112.082.32.32 0 01-.131.028zm39.878 12.745c-.19 0-.346-.168-.346-.375s.15-.375.34-.375h.006c.19 0 .344.168.344.375s-.153.375-.344.375zM1.727 43.117a.318.318 0 01-.132-.028.343.343 0 01-.111-.082.405.405 0 01-.1-.265v-22.49c0-.208.153-.375.343-.375.19 0 .343.167.343.375v22.49a.405.405 0 01-.1.265.343.343 0 01-.112.082.318.318 0 01-.131.028zm2.749 0a.318.318 0 01-.132-.028.343.343 0 01-.111-.082.405.405 0 01-.1-.265v-22.49c0-.208.153-.375.343-.375.19 0 .343.167.343.375v22.49a.404.404 0 01-.1.265.342.342 0 01-.112.082.318.318 0 01-.131.028zm35.047 0a.318.318 0 01-.131-.028.343.343 0 01-.112-.082.402.402 0 01-.1-.265v-22.49c0-.208.154-.375.343-.375.19 0 .344.167.344.375v22.49a.402.402 0 01-.1.265.343.343 0 01-.112.082.318.318 0 01-.132.028zm2.75 0a.318.318 0 01-.132-.028.343.343 0 01-.112-.082.402.402 0 01-.1-.265v-22.49c0-.208.153-.375.343-.375.19 0 .344.167.344.375v22.49a.402.402 0 01-.1.265.343.343 0 01-.112.082.318.318 0 01-.132.028zm1.374 3.748H.352a.318.318 0 01-.131-.028.342.342 0 01-.112-.081.404.404 0 01-.1-.265v-2.25a.404.404 0 01.1-.265.344.344 0 01.112-.08.318.318 0 01.131-.03h43.295a.344.344 0 01.243.11.38.38 0 01.1.266v2.248a.404.404 0 01-.1.266.342.342 0 01-.112.08.318.318 0 01-.131.03zm-42.951-.75h42.607v-1.499H.696v1.5zm31.955-18.741H11.348a.32.32 0 01-.132-.029.343.343 0 01-.111-.081.38.38 0 01-.1-.265.407.407 0 01.1-.265.343.343 0 01.111-.082.316.316 0 01.132-.028H32.65c.045 0 .09.01.132.028a.377.377 0 01.186.203.404.404 0 01-.075.409.341.341 0 01-.111.081.32.32 0 01-.132.029z" fill="#424242"/><path d="M32.652 43.117a.318.318 0 01-.132-.028.343.343 0 01-.111-.082.402.402 0 01-.1-.265V27c0-.207.153-.375.343-.375.19 0 .343.168.343.375v15.743a.404.404 0 01-.1.265.343.343 0 01-.112.082.318.318 0 01-.131.028zm-21.304 0a.318.318 0 01-.131-.028.343.343 0 01-.112-.082.404.404 0 01-.1-.265V27c0-.207.153-.375.343-.375.19 0 .344.168.344.375v15.743a.407.407 0 01-.1.265.343.343 0 01-.112.082.318.318 0 01-.132.028zm26.801-21.74H5.85c-.19 0-.343-.168-.343-.376 0-.207.153-.375.343-.375h32.3c.19 0 .343.168.343.375s-.154.375-.344.375zm0 2.998H5.85c-.19 0-.343-.168-.343-.375s.153-.375.343-.375h32.3c.19 0 .343.168.343.375s-.154.375-.344.375zm0 17.992h-4.123c-.19 0-.343-.167-.343-.374 0-.208.153-.375.343-.375h4.123c.19 0 .344.167.344.374 0 .208-.154.375-.344.375zm0-5.997h-4.123c-.19 0-.343-.168-.343-.375s.153-.375.343-.375h4.123c.19 0 .344.168.344.375s-.154.375-.344.375zm0-2.999h-4.123c-.19 0-.343-.168-.343-.375s.153-.375.343-.375h4.123c.19 0 .344.168.344.375s-.154.375-.344.375zm0-2.999h-4.123c-.19 0-.343-.167-.343-.374 0-.208.153-.375.343-.375h4.123c.19 0 .344.167.344.375 0 .207-.154.374-.344.374zm0-2.998h-4.123a.32.32 0 01-.131-.029.343.343 0 01-.112-.081.38.38 0 01-.1-.265.402.402 0 01.1-.265.344.344 0 01.112-.082.316.316 0 01.131-.028h4.123c.045 0 .09.01.132.028a.38.38 0 01.212.346.404.404 0 01-.1.266.344.344 0 01-.112.081.32.32 0 01-.132.029zm0 11.995h-4.123a.318.318 0 01-.131-.029.344.344 0 01-.112-.081.402.402 0 010-.53.341.341 0 01.112-.082.32.32 0 01.131-.028h4.123c.046 0 .09.01.132.028a.377.377 0 01.186.203.404.404 0 01-.075.409.343.343 0 01-.111.081.318.318 0 01-.132.029z" fill="#424242"/><path d="M36.088 42.367a.32.32 0 01-.132-.028.344.344 0 01-.111-.081.38.38 0 01-.1-.266v-2.999c0-.207.153-.375.343-.375.19 0 .343.168.343.375v3a.404.404 0 01-.1.265.344.344 0 01-.112.08.32.32 0 01-.131.03zm0-5.997a.318.318 0 01-.132-.029.344.344 0 01-.111-.08.38.38 0 01-.1-.266v-3c0-.207.153-.374.343-.374.19 0 .343.167.343.374v3a.404.404 0 01-.1.265.344.344 0 01-.112.081.318.318 0 01-.131.029zm0-5.997a.318.318 0 01-.132-.028.344.344 0 01-.111-.082.38.38 0 01-.1-.265v-3c0-.206.153-.374.343-.374.19 0 .343.168.343.375v3a.404.404 0 01-.1.264.344.344 0 01-.112.082.318.318 0 01-.131.028zM9.974 42.367H5.85c-.19 0-.344-.167-.344-.374 0-.208.154-.375.344-.375h4.123c.19 0 .343.167.343.374 0 .208-.153.375-.343.375zm0-5.997H5.85c-.19 0-.344-.168-.344-.375s.154-.375.344-.375h4.123c.19 0 .343.168.343.375s-.153.375-.343.375zm0-2.999H5.85c-.19 0-.344-.168-.344-.375s.154-.375.344-.375h4.123c.19 0 .343.168.343.375s-.153.375-.343.375zm0-2.999H5.85c-.19 0-.344-.167-.344-.374 0-.208.154-.375.344-.375h4.123c.19 0 .343.167.343.375 0 .207-.153.374-.343.374zm0-2.998H5.85a.32.32 0 01-.132-.029.343.343 0 01-.111-.081.405.405 0 010-.53.343.343 0 01.111-.082.316.316 0 01.132-.028h4.123a.328.328 0 01.243.11.38.38 0 01.1.265.404.404 0 01-.1.265.343.343 0 01-.112.081.32.32 0 01-.131.029zm0 11.995H5.85a.318.318 0 01-.132-.029.343.343 0 01-.111-.081.405.405 0 010-.53.342.342 0 01.111-.082.32.32 0 01.132-.028h4.123c.045 0 .09.01.131.028a.376.376 0 01.186.203.404.404 0 01-.074.409.343.343 0 01-.112.081.318.318 0 01-.131.029z" fill="#424242"/><path d="M7.912 42.367a.318.318 0 01-.131-.028.344.344 0 01-.112-.081.405.405 0 01-.1-.265v-3c0-.207.153-.375.343-.375.19 0 .344.168.344.375v3a.405.405 0 01-.1.265.344.344 0 01-.112.08.318.318 0 01-.132.03zm0-5.997a.32.32 0 01-.131-.029.344.344 0 01-.112-.08.404.404 0 01-.1-.265v-3c0-.208.153-.375.343-.375.19 0 .344.167.344.374v3a.404.404 0 01-.1.265.344.344 0 01-.112.081.32.32 0 01-.132.029zm0-5.997a.318.318 0 01-.131-.028.342.342 0 01-.112-.082.404.404 0 01-.1-.265v-3c0-.206.153-.374.343-.374.19 0 .344.168.344.375v3a.404.404 0 01-.1.264.342.342 0 01-.112.082.318.318 0 01-.132.028zm28.176-5.997a.318.318 0 01-.132-.028.344.344 0 01-.111-.081.404.404 0 01-.1-.265v-3c0-.207.153-.375.343-.375.19 0 .343.168.343.375v3a.407.407 0 01-.1.265.344.344 0 01-.112.08.318.318 0 01-.131.03zm-28.176 0a.318.318 0 01-.131-.028.344.344 0 01-.112-.081.405.405 0 01-.1-.265v-3c0-.207.153-.375.343-.375.19 0 .344.168.344.375v3a.405.405 0 01-.1.265.344.344 0 01-.112.08.318.318 0 01-.132.03zm6.185 0a.318.318 0 01-.131-.028.344.344 0 01-.112-.081.404.404 0 01-.1-.265v-3c0-.207.153-.375.343-.375.19 0 .344.168.344.375v3a.407.407 0 01-.101.265.344.344 0 01-.111.08.318.318 0 01-.132.03zm5.498 0a.318.318 0 01-.132-.028.344.344 0 01-.111-.081.38.38 0 01-.1-.265v-3c0-.207.153-.375.343-.375.19 0 .343.168.343.375v3a.402.402 0 01-.1.265.344.344 0 01-.112.08.318.318 0 01-.131.03zm5.497 0a.318.318 0 01-.131-.028.344.344 0 01-.112-.081.38.38 0 01-.1-.265v-3c0-.207.153-.375.343-.375.19 0 .344.168.344.375v3a.402.402 0 01-.1.265.344.344 0 01-.112.08.318.318 0 01-.132.03zm5.498 0a.318.318 0 01-.131-.028.343.343 0 01-.112-.081.404.404 0 01-.1-.265v-3a.404.404 0 01.1-.265.344.344 0 01.111-.081.318.318 0 01.264 0c.041.018.08.046.111.081a.38.38 0 01.1.265v3a.407.407 0 01-.1.265.344.344 0 01-.111.08.318.318 0 01-.132.03zm-17.18 18.74a.318.318 0 01-.132-.027.343.343 0 01-.111-.082.402.402 0 01-.1-.265v-.75c0-.207.153-.374.343-.374.19 0 .343.167.343.374v.75a.404.404 0 01-.1.265.341.341 0 01-.112.082.318.318 0 01-.131.028zm3.436 0a.318.318 0 01-.132-.027.341.341 0 01-.111-.082.404.404 0 01-.1-.265v-1.5c0-.206.153-.374.343-.374.19 0 .343.168.343.375v1.5a.402.402 0 01-.1.264.343.343 0 01-.112.082.318.318 0 01-.131.028zm3.436 0a.318.318 0 01-.132-.027.341.341 0 01-.111-.082.38.38 0 01-.1-.265v-2.249c0-.207.153-.375.343-.375.19 0 .344.168.344.375v2.25a.406.406 0 01-.101.264.344.344 0 01-.112.082.318.318 0 01-.131.028zm3.436 0a.318.318 0 01-.132-.027.341.341 0 01-.111-.082.402.402 0 01-.1-.265v-2.249c0-.207.153-.375.343-.375.19 0 .343.168.343.375v2.25a.402.402 0 01-.1.264.341.341 0 01-.111.082.318.318 0 01-.132.028zm3.436 0a.318.318 0 01-.131-.027.342.342 0 01-.112-.082.404.404 0 01-.1-.265v-1.5c0-.206.153-.374.343-.374.19 0 .344.168.344.375v1.5a.404.404 0 01-.1.264.341.341 0 01-.112.082.318.318 0 01-.132.028zm3.436 0a.318.318 0 01-.131-.027.344.344 0 01-.112-.082.404.404 0 01-.1-.265v-.75a.404.404 0 01.1-.265.343.343 0 01.111-.08.318.318 0 01.264 0c.041.018.08.046.111.08a.38.38 0 01.1.266v.75a.406.406 0 01-.1.264.343.343 0 01-.111.082.318.318 0 01-.132.028zm-13.744-2.998a.32.32 0 01-.132-.029.344.344 0 01-.111-.081.404.404 0 01-.1-.265c0-5.367 5.066-9.85 5.282-10.038a.326.326 0 01.483.058.388.388 0 01.073.276.399.399 0 01-.127.251c-.05.044-5.025 4.45-5.025 9.453a.402.402 0 01-.1.265.344.344 0 01-.112.081.32.32 0 01-.131.029zm2.061-.75a.32.32 0 01-.131-.029.344.344 0 01-.111-.08.402.402 0 01-.1-.265c-.001-3.132 3.075-6.15 3.206-6.278a.327.327 0 01.249-.093c.09.006.176.05.236.124a.397.397 0 01-.028.53c-.03.028-2.977 2.924-2.977 5.716a.404.404 0 01-.1.265.344.344 0 01-.112.081.32.32 0 01-.132.029z" fill="#424242"/><path d="M25.091 39.368a.32.32 0 01-.131-.029.341.341 0 01-.112-.08.38.38 0 01-.1-.266c0-2.792-2.947-5.688-2.977-5.717a.402.402 0 01-.028-.529.335.335 0 01.237-.124c.09-.006.18.027.248.093.131.127 3.207 3.146 3.207 6.277a.406.406 0 01-.1.265.341.341 0 01-.112.081.32.32 0 01-.132.029zm2.062.749a.318.318 0 01-.131-.028.343.343 0 01-.112-.081.404.404 0 01-.1-.265c0-5.01-4.974-9.409-5.025-9.453a.4.4 0 01-.054-.527.325.325 0 01.483-.059c.216.189 5.283 4.672 5.283 10.039a.407.407 0 01-.1.265.343.343 0 01-.112.081.318.318 0 01-.132.029zM42.96 11.63H1.04c-.19 0-.344-.167-.344-.375 0-.207.154-.375.344-.375h41.92c.19 0 .343.168.343.375 0 .208-.153.375-.343.375z" fill="#424242"/><path d="M42.96 19.127a.318.318 0 01-.132-.028.343.343 0 01-.111-.082.38.38 0 01-.1-.265v-7.497a.406.406 0 01.1-.265.344.344 0 01.111-.081.32.32 0 01.375.081.404.404 0 01.1.265v7.497a.407.407 0 01-.1.265.343.343 0 01-.112.082.32.32 0 01-.131.028z" fill="#424242"/><path d="M42.96 19.127H1.04a.32.32 0 01-.13-.027.345.345 0 01-.112-.082.405.405 0 010-.53.343.343 0 01.112-.081.32.32 0 01.131-.029h41.92a.343.343 0 01.243.11.402.402 0 010 .53.341.341 0 01-.112.082.32.32 0 01-.131.028zM7.568 15.38c-4.286 0-5.415-2.356-5.461-2.457a.406.406 0 01-.019-.286.367.367 0 01.173-.217.317.317 0 01.26-.02c.087.03.158.097.2.185.04.084 1.02 2.045 4.847 2.045 3.893 0 5.562-2.094 5.579-2.115a.35.35 0 01.104-.092.321.321 0 01.38.046.384.384 0 01.12.254.398.398 0 01-.077.273c-.075.097-1.87 2.384-6.106 2.384z" fill="#424242"/><path d="M7.569 16.878c-4.287 0-5.416-2.356-5.462-2.456a.406.406 0 01-.019-.286.367.367 0 01.173-.217.317.317 0 01.26-.021.35.35 0 01.2.186c.04.084 1.02 2.044 4.848 2.044 3.892 0 5.561-2.094 5.578-2.115a.349.349 0 01.104-.091.324.324 0 01.262-.025.336.336 0 01.117.07.397.397 0 01.044.526c-.075.099-1.87 2.385-6.105 2.385zm28.862-1.5c-4.235 0-6.03-2.286-6.105-2.383a.398.398 0 01.044-.526.323.323 0 01.483.045c.016.021 1.686 2.115 5.578 2.115 3.828 0 4.808-1.961 4.849-2.045.086-.181.292-.258.461-.162a.39.39 0 01.152.5c-.046.1-1.175 2.457-5.462 2.457z" fill="#424242"/><path d="M36.431 16.878c-4.235 0-6.03-2.286-6.105-2.384a.398.398 0 01.044-.526.324.324 0 01.483.045c.016.021 1.686 2.115 5.578 2.115 3.828 0 4.808-1.961 4.848-2.044.087-.183.293-.258.462-.162a.39.39 0 01.152.5c-.046.1-1.175 2.456-5.462 2.456z" fill="#424242"/><path d="M22 17.628c-5.916 0-8.717-2.982-8.833-3.109a.393.393 0 01-.1-.264c0-.1.035-.195.1-.265a.33.33 0 01.242-.11.33.33 0 01.243.108c.027.03 2.737 2.89 8.348 2.89 5.634 0 8.32-2.86 8.347-2.889a.344.344 0 01.112-.081.32.32 0 01.374.081.38.38 0 01.1.265.407.407 0 01-.1.265c-.117.127-2.918 3.109-8.833 3.109z" fill="#424242"/><path d="M22 16.128c-5.916 0-8.717-2.982-8.833-3.108a.393.393 0 01-.1-.265c0-.099.035-.194.1-.264a.33.33 0 01.242-.11.33.33 0 01.243.108c.027.03 2.737 2.89 8.348 2.89 5.634 0 8.32-2.86 8.347-2.89a.341.341 0 01.112-.08.318.318 0 01.374.08.38.38 0 01.1.266.406.406 0 01-.1.265c-.117.127-2.918 3.108-8.833 3.108zm18.898 23.24a.316.316 0 01-.131-.028.343.343 0 01-.112-.081.404.404 0 01-.1-.265v-5.248c0-.207.153-.375.343-.375.19 0 .344.168.344.375v5.248a.404.404 0 01-.1.265.343.343 0 01-.112.081.316.316 0 01-.132.029zm0-9.745a.32.32 0 01-.131-.029.343.343 0 01-.112-.081.38.38 0 01-.1-.265V24c0-.207.153-.375.343-.375.19 0 .344.168.344.375v5.248a.404.404 0 01-.1.265.345.345 0 01-.112.081.32.32 0 01-.132.029zM3.122 31.872c-.19 0-.347-.168-.347-.375s.15-.375.34-.375h.007c.19 0 .344.168.344.375s-.154.375-.344.375zm-.02 7.497a.316.316 0 01-.132-.029.343.343 0 01-.111-.081.405.405 0 01-.1-.265v-5.248c-.001-.207.153-.375.343-.375.19 0 .343.168.343.375v5.248a.405.405 0 01-.1.265.343.343 0 01-.112.081.316.316 0 01-.131.029zm0-9.746a.32.32 0 01-.132-.029.343.343 0 01-.111-.081.404.404 0 01-.1-.265V24c-.001-.207.153-.375.343-.375.19 0 .343.168.343.375v5.248a.404.404 0 01-.1.265.343.343 0 01-.112.081.32.32 0 01-.131.029zm-.688 15.743a.318.318 0 01-.131-.029.343.343 0 01-.112-.08.405.405 0 01-.1-.265v-.75c0-.208.154-.375.343-.375.19 0 .344.167.344.375v.75a.405.405 0 01-.1.264.343.343 0 01-.112.081.318.318 0 01-.132.029zm2.062 0a.318.318 0 01-.131-.029.343.343 0 01-.112-.08.405.405 0 01-.1-.265v-.75c0-.208.153-.375.343-.375.19 0 .344.167.344.375v.75a.405.405 0 01-.1.264.343.343 0 01-.112.081.318.318 0 01-.132.029zm2.062 0a.318.318 0 01-.132-.029.343.343 0 01-.111-.08.405.405 0 01-.1-.265v-.75c0-.208.153-.375.343-.375.19 0 .343.167.343.375v.75a.405.405 0 01-.1.264.343.343 0 01-.112.081.318.318 0 01-.131.029zm2.061 0a.318.318 0 01-.131-.029.343.343 0 01-.112-.08.405.405 0 01-.1-.265v-.75c0-.208.153-.375.343-.375.19 0 .344.167.344.375v.75a.405.405 0 01-.1.264.343.343 0 01-.112.081.318.318 0 01-.132.029zm2.062 0a.32.32 0 01-.132-.028.344.344 0 01-.111-.082.402.402 0 01-.1-.265v-.75c0-.207.153-.374.343-.374.19 0 .344.167.344.375v.75a.404.404 0 01-.101.264.344.344 0 01-.111.082.32.32 0 01-.132.028zm2.062 0a.32.32 0 01-.132-.028.344.344 0 01-.111-.082.38.38 0 01-.101-.265v-.75c0-.207.154-.374.344-.374.19 0 .343.167.343.375v.75a.404.404 0 01-.1.264.344.344 0 01-.112.082.32.32 0 01-.131.028zm2.061 0a.32.32 0 01-.131-.028.344.344 0 01-.112-.082.402.402 0 01-.1-.265v-.75c0-.207.153-.374.343-.374.19 0 .344.167.344.375v.75a.404.404 0 01-.1.264.344.344 0 01-.112.082.32.32 0 01-.132.028zm2.062 0a.32.32 0 01-.132-.028.344.344 0 01-.111-.082.404.404 0 01-.1-.265v-.75c0-.207.153-.374.343-.374.19 0 .343.167.343.375v.75a.402.402 0 01-.1.264.344.344 0 01-.112.082.32.32 0 01-.131.028zm2.061 0a.32.32 0 01-.131-.028.344.344 0 01-.111-.082.38.38 0 01-.101-.265v-.75c0-.207.154-.374.343-.374.19 0 .344.167.344.375v.75a.402.402 0 01-.1.264.344.344 0 01-.112.082.32.32 0 01-.132.028zm2.063 0a.32.32 0 01-.132-.028.344.344 0 01-.112-.082.404.404 0 01-.1-.265v-.75c0-.207.153-.374.343-.374.19 0 .344.167.344.375v.75a.407.407 0 01-.1.264.344.344 0 01-.112.082.32.32 0 01-.132.028zm2.06 0a.32.32 0 01-.13-.028.344.344 0 01-.112-.082.38.38 0 01-.1-.265v-.75a.406.406 0 01.1-.265.343.343 0 01.111-.08.316.316 0 01.263 0c.042.018.08.046.112.08a.38.38 0 01.1.266v.75a.407.407 0 01-.1.264.345.345 0 01-.112.082.32.32 0 01-.131.028zm2.062 0a.32.32 0 01-.131-.028.344.344 0 01-.112-.082.402.402 0 01-.1-.265v-.75c0-.207.153-.374.343-.374.19 0 .344.167.344.375v.75a.404.404 0 01-.1.264.344.344 0 01-.112.082.32.32 0 01-.132.028zm2.062 0a.32.32 0 01-.131-.028.344.344 0 01-.112-.082.38.38 0 01-.1-.265v-.75c0-.207.153-.374.343-.374.19 0 .344.167.344.375v.75a.404.404 0 01-.1.264.344.344 0 01-.112.082.32.32 0 01-.132.028zm2.062 0a.32.32 0 01-.132-.028.344.344 0 01-.111-.082.38.38 0 01-.1-.265v-.75a.402.402 0 01.1-.265.344.344 0 01.111-.08.318.318 0 01.263 0c.042.018.08.046.112.08a.404.404 0 01.1.265v.75a.404.404 0 01-.1.265.343.343 0 01-.112.081.318.318 0 01-.131.029zm2.061 0a.32.32 0 01-.131-.028.344.344 0 01-.112-.082.38.38 0 01-.1-.265v-.75c0-.207.153-.374.343-.374.19 0 .344.167.344.375v.75a.407.407 0 01-.1.264.344.344 0 01-.112.082.32.32 0 01-.132.028zm2.062 0a.32.32 0 01-.132-.028.344.344 0 01-.111-.082.404.404 0 01-.1-.265v-.75c0-.207.153-.374.343-.374.19 0 .343.167.343.375v.75a.404.404 0 01-.1.264.344.344 0 01-.112.082.32.32 0 01-.131.028zm2.061 0a.318.318 0 01-.13-.029.343.343 0 01-.112-.08.38.38 0 01-.101-.266v-.75a.404.404 0 01.1-.265.343.343 0 01.112-.08.316.316 0 01.263 0c.042.018.08.046.112.08a.38.38 0 01.1.266v.75a.402.402 0 01-.1.264.344.344 0 01-.112.082.32.32 0 01-.131.028zm2.062 0a.32.32 0 01-.131-.028.344.344 0 01-.112-.082.38.38 0 01-.1-.265v-.75c0-.207.153-.374.343-.374.19 0 .344.167.344.375v.75a.404.404 0 01-.1.264.345.345 0 01-.112.082.32.32 0 01-.132.028zm2.062 0a.32.32 0 01-.132-.028.344.344 0 01-.111-.082.404.404 0 01-.1-.265v-.75c0-.207.153-.374.343-.374.19 0 .343.167.343.375v.75a.407.407 0 01-.1.264.344.344 0 01-.112.082.32.32 0 01-.131.028zm2.062 0a.32.32 0 01-.132-.028.345.345 0 01-.112-.082.38.38 0 01-.1-.265v-.75a.406.406 0 01.1-.265.344.344 0 01.112-.08.318.318 0 01.263 0c.042.018.08.046.111.08a.38.38 0 01.101.266v.75a.407.407 0 01-.1.264.343.343 0 01-.112.081.318.318 0 01-.131.029zM14.784 10.13a.318.318 0 01-.131-.028.343.343 0 01-.112-.08.402.402 0 01-.1-.265v-2.25c0-.207.153-.375.343-.375.19 0 .344.168.344.375v2.249a.404.404 0 01-.1.265.343.343 0 01-.112.081.318.318 0 01-.132.029zm3.436 0a.318.318 0 01-.131-.028.343.343 0 01-.112-.08.38.38 0 01-.1-.266v-2.25c0-.206.153-.374.343-.374.19 0 .344.168.344.375v2.249a.402.402 0 01-.1.265.343.343 0 01-.112.081.318.318 0 01-.132.029z" fill="#424242"/><path d="M18.22 7.882h-3.436c-.19 0-.343-.168-.343-.375s.153-.375.343-.375h3.436c.19 0 .344.168.344.375s-.154.375-.344.375zm-1.718-.75c-.568 0-1.03-.504-1.03-1.124 0-.437.32-1.875 1.03-1.875s1.031 1.438 1.031 1.875c0 .62-.462 1.124-1.03 1.124zm0-2.217c-.147.18-.343.783-.343 1.093 0 .206.154.374.343.374.19 0 .344-.168.344-.374 0-.31-.197-.913-.344-1.093zm3.78 5.216a.318.318 0 01-.132-.029.343.343 0 01-.111-.08.38.38 0 01-.1-.266V4.508c0-.207.153-.375.343-.375.19 0 .344.168.344.375v5.248a.406.406 0 01-.101.265.346.346 0 01-.112.081.32.32 0 01-.131.029zm3.436 0a.318.318 0 01-.131-.029.343.343 0 01-.112-.08.404.404 0 01-.1-.265v-5.25c0-.207.153-.375.343-.375.19 0 .344.168.344.375v5.248a.404.404 0 01-.101.265.344.344 0 01-.111.081.32.32 0 01-.132.029z" fill="#424242"/><path d="M23.718 4.883h-3.436c-.19 0-.344-.168-.344-.375s.154-.375.344-.375h3.436c.19 0 .344.168.344.375s-.154.375-.344.375zM22 4.133c-.569 0-1.03-.504-1.03-1.124 0-.437.32-1.874 1.03-1.874s1.03 1.437 1.03 1.874c0 .62-.462 1.124-1.03 1.124zm0-2.217c-.147.18-.344.783-.344 1.093 0 .1.037.194.101.265a.33.33 0 00.243.11.33.33 0 00.243-.11c.064-.07.1-.166.1-.265 0-.31-.196-.913-.343-1.093zm3.78 8.215a.32.32 0 01-.132-.029.343.343 0 01-.111-.08.404.404 0 01-.1-.265v-2.25a.404.404 0 01.1-.265.343.343 0 01.111-.081.319.319 0 01.263 0c.042.018.08.046.112.08a.38.38 0 01.1.266v2.249a.406.406 0 01-.1.265.343.343 0 01-.112.081.318.318 0 01-.132.029zm3.436 0a.318.318 0 01-.132-.029.343.343 0 01-.111-.08.38.38 0 01-.1-.266v-2.25a.404.404 0 01.1-.264.343.343 0 01.111-.081.319.319 0 01.263 0c.042.018.08.046.112.08a.404.404 0 01.1.265v2.25a.404.404 0 01-.1.265.343.343 0 01-.112.081.319.319 0 01-.131.029z" fill="#424242"/><path d="M29.216 7.882h-3.437c-.19 0-.343-.168-.343-.375s.154-.375.343-.375h3.437c.19 0 .343.168.343.375s-.154.375-.343.375zm-1.718-.75c-.569 0-1.031-.504-1.031-1.124 0-.437.321-1.875 1.03-1.875.71 0 1.032 1.438 1.032 1.875 0 .62-.463 1.124-1.031 1.124zm0-2.217c-.148.179-.344.783-.344 1.093 0 .206.154.374.344.374.189 0 .343-.168.343-.374 0-.31-.196-.914-.343-1.093z" fill="#424242"/></svg>