<svg style="position: absolute; width: 0; height: 0; overflow: hidden;" version="1.1" xmlns="http://www.w3.org/2000/svg" xmlns:xlink="http://www.w3.org/1999/xlink">
<defs>

<symbol id='offert_1' width="55" height="44" viewBox="0 0 55 44" fill="none" xmlns="http://www.w3.org/2000/svg">
<path d="M42.5391 23.7188H37.3828C37.1452 23.7188 36.9531 23.8727 36.9531 24.0625C36.9531 24.2523 37.1452 24.4062 37.3828 24.4062H42.5391C42.7767 24.4062 42.9688 24.2523 42.9688 24.0625C42.9688 23.8727 42.7767 23.7188 42.5391 23.7188Z" fill="currentColor"/>
<path d="M37.3828 23.7188H12.4609C12.2233 23.7188 12.0312 23.8727 12.0312 24.0625C12.0312 24.2523 12.2233 24.4062 12.4609 24.4062H37.3828C37.6204 24.4062 37.8125 24.2523 37.8125 24.0625C37.8125 23.8727 37.6204 23.7188 37.3828 23.7188Z" fill="currentColor"/>
<path d="M38.6719 26.8125H16.3281C16.0905 26.8125 15.8984 26.9665 15.8984 27.1562C15.8984 27.346 16.0905 27.5 16.3281 27.5H38.6719C38.9095 27.5 39.1016 27.346 39.1016 27.1562C39.1016 26.9665 38.9095 26.8125 38.6719 26.8125Z" fill="currentColor"/>
<path d="M38.6719 30.25H16.3281C16.0905 30.25 15.8984 30.404 15.8984 30.5938C15.8984 30.7835 16.0905 30.9375 16.3281 30.9375H38.6719C38.9095 30.9375 39.1016 30.7835 39.1016 30.5938C39.1016 30.404 38.9095 30.25 38.6719 30.25Z" fill="currentColor"/>
<path d="M38.6719 31.625H16.3281C16.0905 31.625 15.8984 31.779 15.8984 31.9688C15.8984 32.1585 16.0905 32.3125 16.3281 32.3125H38.6719C38.9095 32.3125 39.1016 32.1585 39.1016 31.9688C39.1016 31.779 38.9095 31.625 38.6719 31.625Z" fill="currentColor"/>
<path d="M36.9531 0H17.1875C16.9499 0 16.7578 0.154 16.7578 0.34375C16.7578 0.5335 16.9499 0.6875 17.1875 0.6875H36.9531C37.1907 0.6875 37.3828 0.5335 37.3828 0.34375C37.3828 0.154 37.1907 0 36.9531 0Z" fill="currentColor"/>
<path d="M36.9531 16.1562H18.0469C17.8093 16.1562 17.6172 16.3102 17.6172 16.5C17.6172 16.6898 17.8093 16.8438 18.0469 16.8438H36.9531C37.1907 16.8438 37.3828 16.6898 37.3828 16.5C37.3828 16.3102 37.1907 16.1562 36.9531 16.1562Z" fill="currentColor"/>
<path d="M40.8203 21.6562H14.1797C12.995 21.6562 12.0312 22.4273 12.0312 23.375V24.0625C12.0312 24.2522 12.2233 24.4062 12.4609 24.4062C12.6986 24.4062 12.8906 24.2522 12.8906 24.0625V23.375C12.8906 22.8064 13.469 22.3438 14.1797 22.3438H40.8203C41.531 22.3438 42.1094 22.8064 42.1094 23.375V24.0625C42.1094 24.2522 42.3014 24.4062 42.5391 24.4062C42.7767 24.4062 42.9688 24.2522 42.9688 24.0625V23.375C42.9688 22.4273 42.005 21.6562 40.8203 21.6562Z" fill="currentColor"/>
<path d="M16.3281 23.7188C16.0905 23.7188 15.8984 23.8727 15.8984 24.0625V43.3125H12.8906V24.0625C12.8906 23.8727 12.6986 23.7188 12.4609 23.7188C12.2233 23.7188 12.0312 23.8727 12.0312 24.0625V43.6562C12.0312 43.846 12.2233 44 12.4609 44H16.3281C16.5657 44 16.7578 43.846 16.7578 43.6562V24.0625C16.7578 23.8727 16.5657 23.7188 16.3281 23.7188Z" fill="currentColor"/>
<path d="M42.5391 23.7188C42.3014 23.7188 42.1094 23.8727 42.1094 24.0625V43.3125H39.1016V24.0625C39.1016 23.8727 38.9095 23.7188 38.6719 23.7188C38.4343 23.7188 38.2422 23.8727 38.2422 24.0625V43.6562C38.2422 43.846 38.4343 44 38.6719 44H42.5391C42.7767 44 42.9688 43.846 42.9688 43.6562V24.0625C42.9688 23.8727 42.7767 23.7188 42.5391 23.7188Z" fill="currentColor"/>
<path d="M35.6641 3.4375H19.3359C18.1513 3.4375 17.1875 4.20853 17.1875 5.15625V13.75C17.1875 14.6977 18.1513 15.4688 19.3359 15.4688H35.6641C36.8487 15.4688 37.8125 14.6977 37.8125 13.75V5.15625C37.8125 4.20853 36.8487 3.4375 35.6641 3.4375ZM36.9531 13.75C36.9531 14.3186 36.3748 14.7812 35.6641 14.7812H19.3359C18.6252 14.7812 18.0469 14.3186 18.0469 13.75V5.15625C18.0469 4.58769 18.6252 4.125 19.3359 4.125H35.6641C36.3748 4.125 36.9531 4.58769 36.9531 5.15625V13.75Z" fill="currentColor"/>
<path d="M18.0469 0H14.1797C13.9421 0 13.75 0.154 13.75 0.34375V22C13.75 22.1898 13.9421 22.3438 14.1797 22.3438C14.4173 22.3438 14.6094 22.1898 14.6094 22V0.6875H17.6172V4.125C17.6172 4.31475 17.8093 4.46875 18.0469 4.46875C18.2845 4.46875 18.4766 4.31475 18.4766 4.125V0.34375C18.4766 0.154 18.2845 0 18.0469 0Z" fill="currentColor"/>
<path d="M18.0469 14.4375C17.8093 14.4375 17.6172 14.5915 17.6172 14.7812V22C17.6172 22.1898 17.8093 22.3438 18.0469 22.3438C18.2845 22.3438 18.4766 22.1898 18.4766 22V14.7812C18.4766 14.5915 18.2845 14.4375 18.0469 14.4375Z" fill="currentColor"/>
<path d="M36.9531 14.4375C36.7155 14.4375 36.5234 14.5915 36.5234 14.7812V22C36.5234 22.1898 36.7155 22.3438 36.9531 22.3438C37.1907 22.3438 37.3828 22.1898 37.3828 22V14.7812C37.3828 14.5915 37.1907 14.4375 36.9531 14.4375Z" fill="currentColor"/>
<path d="M40.8203 0H36.9531C36.7155 0 36.5234 0.154 36.5234 0.34375V4.125C36.5234 4.31475 36.7155 4.46875 36.9531 4.46875C37.1907 4.46875 37.3828 4.31475 37.3828 4.125V0.6875H40.3906V22C40.3906 22.1898 40.5827 22.3438 40.8203 22.3438C41.0579 22.3438 41.25 22.1898 41.25 22V0.34375C41.25 0.154 41.0579 0 40.8203 0Z" fill="currentColor"/>
<path d="M30.5078 5.15625H28.7891C28.5514 5.15625 28.3594 5.31025 28.3594 5.5C28.3594 5.68975 28.5514 5.84375 28.7891 5.84375H30.5078C30.7454 5.84375 30.9375 5.68975 30.9375 5.5C30.9375 5.31025 30.7454 5.15625 30.5078 5.15625Z" fill="currentColor"/>
<path d="M35.2344 5.15625H32.2266C31.9889 5.15625 31.7969 5.31025 31.7969 5.5C31.7969 5.68975 31.9889 5.84375 32.2266 5.84375H34.8047V7.21875C34.8047 7.4085 34.9968 7.5625 35.2344 7.5625C35.472 7.5625 35.6641 7.4085 35.6641 7.21875V5.5C35.6641 5.31025 35.472 5.15625 35.2344 5.15625Z" fill="currentColor"/>
</symbol>
<symbol id="offert_2" width="44" height="48" viewBox="0 0 44 48" fill="none" xmlns="http://www.w3.org/2000/svg">
<path d="M1.0397 19.1271C0.994558 19.1271 0.94986 19.1174 0.908154 19.0986C0.866449 19.0797 0.828555 19.0521 0.796638 19.0173C0.764721 18.9825 0.739408 18.9411 0.722145 18.8957C0.704883 18.8502 0.696009 18.8014 0.696031 18.7522V11.2553C0.696031 11.0482 0.849774 10.8804 1.0397 10.8804C1.22962 10.8804 1.38327 11.0482 1.38327 11.2553V18.7522C1.38331 18.8014 1.37444 18.8501 1.35719 18.8956C1.33994 18.9411 1.31463 18.9825 1.28272 19.0173C1.25081 19.0521 1.21292 19.0797 1.17122 19.0986C1.12952 19.1174 1.08483 19.1271 1.0397 19.1271ZM40.918 31.8717C40.7288 31.8717 40.5717 31.7041 40.5717 31.4969C40.5717 31.2897 40.7221 31.1221 40.9113 31.1221H40.918C41.1087 31.1221 41.2616 31.2897 41.2616 31.4969C41.2616 31.7041 41.1086 31.8717 40.918 31.8717ZM1.72685 43.1169C1.68172 43.117 1.63703 43.1073 1.59533 43.0885C1.55363 43.0697 1.51574 43.042 1.48383 43.0072C1.45192 42.9724 1.42661 42.9311 1.40936 42.8856C1.3921 42.8401 1.38324 42.7913 1.38327 42.7421V20.2516C1.38327 20.0444 1.53693 19.8767 1.72685 19.8767C1.91677 19.8767 2.07043 20.0444 2.07043 20.2516V42.7421C2.07046 42.7913 2.0616 42.8401 2.04435 42.8856C2.02709 42.9311 2.00178 42.9724 1.96987 43.0072C1.93796 43.042 1.90007 43.0697 1.85837 43.0885C1.81667 43.1073 1.77198 43.117 1.72685 43.1169ZM4.47565 43.1169C4.43052 43.117 4.38583 43.1073 4.34413 43.0885C4.30243 43.0697 4.26454 43.042 4.23263 43.0072C4.20072 42.9724 4.17541 42.9311 4.15815 42.8856C4.1409 42.8401 4.13204 42.7913 4.13207 42.7421V20.2516C4.13207 20.0444 4.28573 19.8767 4.47565 19.8767C4.66557 19.8767 4.81931 20.0444 4.81931 20.2516V42.7421C4.81933 42.7914 4.81046 42.8401 4.7932 42.8856C4.77593 42.9311 4.75062 42.9724 4.7187 43.0072C4.68678 43.0421 4.64889 43.0697 4.60718 43.0885C4.56548 43.1073 4.52078 43.117 4.47565 43.1169ZM39.5235 43.1169C39.4783 43.117 39.4336 43.1073 39.3919 43.0885C39.3502 43.0697 39.3123 43.042 39.2804 43.0072C39.2485 42.9724 39.2232 42.9311 39.206 42.8856C39.1887 42.8401 39.1798 42.7913 39.1799 42.7421V20.2516C39.1799 20.0444 39.3335 19.8767 39.5235 19.8767C39.7134 19.8767 39.867 20.0444 39.867 20.2516V42.7421C39.8671 42.7913 39.8582 42.8401 39.8409 42.8856C39.8237 42.9311 39.7984 42.9724 39.7665 43.0072C39.7346 43.042 39.6967 43.0697 39.655 43.0885C39.6133 43.1073 39.5686 43.117 39.5235 43.1169ZM42.2723 43.1169C42.2271 43.117 42.1824 43.1073 42.1407 43.0885C42.099 43.0697 42.0611 43.042 42.0292 43.0072C41.9973 42.9724 41.972 42.9311 41.9548 42.8856C41.9375 42.8401 41.9286 42.7913 41.9287 42.7421V20.2516C41.9287 20.0444 42.0823 19.8767 42.2723 19.8767C42.4622 19.8767 42.6158 20.0444 42.6158 20.2516V42.7421C42.6159 42.7913 42.607 42.8401 42.5897 42.8856C42.5725 42.9311 42.5472 42.9724 42.5153 43.0072C42.4834 43.042 42.4455 43.0697 42.4038 43.0885C42.3621 43.1073 42.3174 43.117 42.2723 43.1169ZM43.6467 46.8653H0.352367C0.307238 46.8654 0.262546 46.8557 0.220846 46.8369C0.179145 46.8181 0.141256 46.7905 0.109345 46.7556C0.0774343 46.7208 0.0521278 46.6795 0.0348734 46.634C0.017619 46.5885 0.00875526 46.5398 0.00878916 46.4905V44.2416C0.00875527 44.1923 0.0176184 44.1436 0.0348718 44.0981C0.0521251 44.0526 0.0774303 44.0112 0.10934 43.9764C0.14125 43.9416 0.179138 43.914 0.220839 43.8951C0.26254 43.8763 0.307234 43.8666 0.352367 43.8667H43.6466C43.6918 43.8666 43.7365 43.8763 43.7782 43.8951C43.8199 43.914 43.8578 43.9416 43.8897 43.9764C43.9216 44.0112 43.9469 44.0526 43.9642 44.0981C43.9815 44.1436 43.9903 44.1923 43.9903 44.2416V46.4905C43.9903 46.5398 43.9815 46.5885 43.9642 46.634C43.947 46.6795 43.9217 46.7208 43.8898 46.7556C43.8578 46.7905 43.82 46.8181 43.7783 46.8369C43.7366 46.8557 43.6919 46.8654 43.6467 46.8653ZM0.696031 46.1157H43.3032V44.6164H0.696031V46.1157ZM32.6513 27.3736H11.3478C11.3027 27.3736 11.258 27.3639 11.2163 27.3451C11.1746 27.3263 11.1367 27.2986 11.1048 27.2638C11.0729 27.229 11.0476 27.1877 11.0303 27.1422C11.0131 27.0967 11.0042 27.0479 11.0042 26.9987C11.0042 26.9495 11.0131 26.9007 11.0303 26.8552C11.0476 26.8097 11.0729 26.7684 11.1048 26.7336C11.1367 26.6988 11.1746 26.6712 11.2163 26.6524C11.258 26.6335 11.3027 26.6238 11.3478 26.6239H32.6514C32.6965 26.6238 32.7412 26.6335 32.7829 26.6524C32.8246 26.6712 32.8625 26.6988 32.8944 26.7336C32.9263 26.7684 32.9516 26.8097 32.9688 26.8552C32.9861 26.9007 32.995 26.9495 32.995 26.9987C32.995 27.0479 32.9861 27.0967 32.9688 27.1422C32.9516 27.1877 32.9263 27.229 32.8943 27.2638C32.8624 27.2987 32.8245 27.3263 32.7828 27.3451C32.7411 27.3639 32.6964 27.3736 32.6513 27.3736Z" fill="currentColor"/>
<path d="M32.6517 43.1169C32.6065 43.117 32.5618 43.1073 32.5201 43.0885C32.4784 43.0697 32.4405 43.042 32.4086 43.0072C32.3767 42.9724 32.3514 42.9311 32.3342 42.8856C32.3169 42.8401 32.308 42.7913 32.3081 42.7421V26.9987C32.3081 26.7916 32.4617 26.6239 32.6517 26.6239C32.8416 26.6239 32.9952 26.7916 32.9952 26.9987V42.7421C32.9953 42.7913 32.9864 42.8401 32.9692 42.8856C32.9519 42.9311 32.9266 42.9724 32.8947 43.0072C32.8628 43.042 32.8249 43.0697 32.7832 43.0885C32.7415 43.1073 32.6968 43.117 32.6517 43.1169ZM11.3482 43.1169C11.3031 43.117 11.2584 43.1073 11.2167 43.0885C11.175 43.0697 11.1371 43.042 11.1052 43.0072C11.0732 42.9724 11.0479 42.9311 11.0307 42.8856C11.0134 42.8401 11.0046 42.7913 11.0046 42.7421V26.9987C11.0046 26.7916 11.1583 26.6239 11.3482 26.6239C11.5381 26.6239 11.6918 26.7916 11.6918 26.9987V42.7421C11.6918 42.7913 11.6829 42.8401 11.6657 42.8856C11.6484 42.9311 11.6231 42.9724 11.5912 43.0072C11.5593 43.042 11.5214 43.0697 11.4797 43.0885C11.438 43.1073 11.3933 43.117 11.3482 43.1169ZM38.1494 21.3761H5.85041C5.66049 21.3761 5.50684 21.2085 5.50684 21.0013C5.50684 20.7941 5.66049 20.6265 5.85041 20.6265H38.1494C38.3393 20.6265 38.493 20.7941 38.493 21.0013C38.493 21.2085 38.3393 21.3761 38.1494 21.3761ZM38.1494 24.3748H5.85041C5.66049 24.3748 5.50684 24.2072 5.50684 24C5.50684 23.7928 5.66049 23.6252 5.85041 23.6252H38.1494C38.3393 23.6252 38.493 23.7928 38.493 24C38.493 24.2072 38.3393 24.3748 38.1494 24.3748ZM38.1494 42.3673H34.0261C33.8362 42.3673 33.6826 42.1997 33.6826 41.9925C33.6826 41.7853 33.8362 41.6177 34.0261 41.6177H38.1494C38.3393 41.6177 38.493 41.7853 38.493 41.9925C38.493 42.1997 38.3393 42.3673 38.1494 42.3673ZM38.1494 36.3698H34.0261C33.8362 36.3698 33.6826 36.2021 33.6826 35.9949C33.6826 35.7877 33.8362 35.6201 34.0261 35.6201H38.1494C38.3393 35.6201 38.493 35.7877 38.493 35.9949C38.493 36.2021 38.3393 36.3698 38.1494 36.3698ZM38.1494 33.3711H34.0261C33.8362 33.3711 33.6826 33.2034 33.6826 32.9962C33.6826 32.7891 33.8362 32.6214 34.0261 32.6214H38.1494C38.3393 32.6214 38.493 32.7891 38.493 32.9962C38.493 33.2034 38.3393 33.3711 38.1494 33.3711ZM38.1494 30.3724H34.0261C33.8362 30.3724 33.6826 30.2047 33.6826 29.9976C33.6826 29.7904 33.8362 29.6227 34.0261 29.6227H38.1494C38.3393 29.6227 38.493 29.7904 38.493 29.9976C38.493 30.2047 38.3393 30.3724 38.1494 30.3724ZM38.1494 27.3736H34.0261C33.981 27.3736 33.9363 27.3639 33.8946 27.3451C33.8529 27.3263 33.815 27.2986 33.7831 27.2638C33.7512 27.229 33.7259 27.1877 33.7086 27.1422C33.6914 27.0967 33.6825 27.0479 33.6826 26.9987C33.6825 26.9495 33.6914 26.9007 33.7087 26.8552C33.7259 26.8097 33.7512 26.7684 33.7831 26.7336C33.8151 26.6988 33.8529 26.6712 33.8946 26.6524C33.9363 26.6335 33.981 26.6238 34.0261 26.6239H38.1494C38.1945 26.6238 38.2392 26.6335 38.2809 26.6524C38.3226 26.6712 38.3605 26.6988 38.3924 26.7336C38.4243 26.7684 38.4496 26.8097 38.4669 26.8552C38.4842 26.9007 38.493 26.9495 38.493 26.9987C38.493 27.0479 38.4842 27.0967 38.4669 27.1422C38.4497 27.1877 38.4244 27.229 38.3925 27.2638C38.3605 27.2986 38.3227 27.3263 38.281 27.3451C38.2393 27.3639 38.1946 27.3736 38.1494 27.3736ZM38.1494 39.3686H34.0261C33.981 39.3686 33.9363 39.359 33.8946 39.3401C33.8529 39.3213 33.8151 39.2937 33.7831 39.2589C33.7512 39.2241 33.7259 39.1828 33.7087 39.1373C33.6914 39.0918 33.6825 39.043 33.6826 38.9938C33.6825 38.9446 33.6914 38.8958 33.7086 38.8503C33.7259 38.8048 33.7512 38.7635 33.7831 38.7287C33.815 38.6938 33.8529 38.6662 33.8946 38.6474C33.9363 38.6286 33.981 38.6189 34.0261 38.6189H38.1494C38.1946 38.6189 38.2393 38.6286 38.281 38.6474C38.3227 38.6662 38.3605 38.6938 38.3925 38.7287C38.4244 38.7635 38.4497 38.8048 38.4669 38.8503C38.4842 38.8958 38.493 38.9446 38.493 38.9938C38.493 39.043 38.4842 39.0918 38.4669 39.1373C38.4496 39.1828 38.4243 39.2241 38.3924 39.2589C38.3605 39.2937 38.3226 39.3213 38.2809 39.3401C38.2392 39.359 38.1945 39.3686 38.1494 39.3686Z" fill="currentColor"/>
<path d="M36.0878 42.3673C36.0427 42.3673 35.998 42.3577 35.9563 42.3389C35.9146 42.32 35.8767 42.2924 35.8448 42.2576C35.8129 42.2228 35.7876 42.1815 35.7703 42.136C35.7531 42.0905 35.7442 42.0417 35.7442 41.9925V38.9931C35.7442 38.7858 35.8979 38.6182 36.0878 38.6182C36.2777 38.6182 36.4314 38.7858 36.4314 38.9931V41.9925C36.4314 42.0417 36.4226 42.0905 36.4053 42.136C36.3881 42.1815 36.3627 42.2228 36.3308 42.2576C36.2989 42.2924 36.261 42.32 36.2193 42.3389C36.1776 42.3577 36.1329 42.3673 36.0878 42.3673ZM36.0878 36.3698C36.0427 36.3699 35.998 36.3602 35.9563 36.3414C35.9146 36.3225 35.8767 36.2949 35.8448 36.2601C35.8129 36.2253 35.7876 36.1839 35.7703 36.1384C35.7531 36.0929 35.7442 36.0442 35.7442 35.9949V32.9955C35.7442 32.7883 35.8979 32.6207 36.0878 32.6207C36.2777 32.6207 36.4314 32.7883 36.4314 32.9955V35.9949C36.4314 36.0442 36.4226 36.0929 36.4053 36.1384C36.3881 36.1839 36.3628 36.2253 36.3308 36.2601C36.2989 36.2949 36.261 36.3225 36.2193 36.3414C36.1776 36.3602 36.1329 36.3699 36.0878 36.3698ZM36.0878 30.373C36.0427 30.3731 35.998 30.3634 35.9563 30.3446C35.9146 30.3257 35.8767 30.2981 35.8448 30.2633C35.8129 30.2285 35.7876 30.1872 35.7703 30.1417C35.7531 30.0962 35.7442 30.0474 35.7442 29.9982V26.9987C35.7442 26.7916 35.8979 26.6239 36.0878 26.6239C36.2777 26.6239 36.4314 26.7916 36.4314 26.9987V29.9982C36.4314 30.0474 36.4226 30.0962 36.4053 30.1417C36.3881 30.1872 36.3627 30.2285 36.3308 30.2633C36.2989 30.2981 36.261 30.3257 36.2193 30.3446C36.1776 30.3634 36.1329 30.3731 36.0878 30.373ZM9.97382 42.3673H5.85054C5.66061 42.3673 5.50696 42.1997 5.50696 41.9925C5.50696 41.7853 5.66061 41.6177 5.85054 41.6177H9.97382C10.1637 41.6177 10.3174 41.7853 10.3174 41.9925C10.3174 42.1997 10.1637 42.3673 9.97382 42.3673ZM9.97382 36.3698H5.85054C5.66061 36.3698 5.50696 36.2021 5.50696 35.9949C5.50696 35.7877 5.66061 35.6201 5.85054 35.6201H9.97382C10.1637 35.6201 10.3174 35.7877 10.3174 35.9949C10.3174 36.2021 10.1637 36.3698 9.97382 36.3698ZM9.97382 33.3711H5.85054C5.66061 33.3711 5.50696 33.2034 5.50696 32.9962C5.50696 32.7891 5.66061 32.6214 5.85054 32.6214H9.97382C10.1637 32.6214 10.3174 32.7891 10.3174 32.9962C10.3174 33.2034 10.1637 33.3711 9.97382 33.3711ZM9.97382 30.3724H5.85054C5.66061 30.3724 5.50696 30.2047 5.50696 29.9976C5.50696 29.7904 5.66061 29.6227 5.85054 29.6227H9.97382C10.1637 29.6227 10.3174 29.7904 10.3174 29.9976C10.3174 30.2047 10.1637 30.3724 9.97382 30.3724ZM9.97382 27.3736H5.85054C5.8054 27.3736 5.76071 27.3639 5.71901 27.3451C5.67731 27.3263 5.63942 27.2986 5.60751 27.2638C5.5756 27.229 5.55029 27.1877 5.53304 27.1422C5.51579 27.0967 5.50692 27.0479 5.50696 26.9987C5.50694 26.9495 5.51581 26.9007 5.53307 26.8552C5.55032 26.8097 5.57563 26.7684 5.60754 26.7336C5.63945 26.6988 5.67733 26.6712 5.71903 26.6524C5.76072 26.6335 5.80541 26.6238 5.85054 26.6239H9.97382C10.0189 26.6238 10.0636 26.6335 10.1053 26.6524C10.147 26.6712 10.1849 26.6988 10.2168 26.7336C10.2487 26.7684 10.274 26.8097 10.2913 26.8552C10.3085 26.9007 10.3174 26.9495 10.3174 26.9987C10.3174 27.0479 10.3086 27.0967 10.2913 27.1422C10.2741 27.1877 10.2488 27.229 10.2168 27.2638C10.1849 27.2986 10.147 27.3263 10.1053 27.3451C10.0636 27.3639 10.0189 27.3736 9.97382 27.3736ZM9.97382 39.3686H5.85054C5.80541 39.3686 5.76072 39.359 5.71903 39.3401C5.67733 39.3213 5.63945 39.2937 5.60754 39.2589C5.57563 39.2241 5.55032 39.1828 5.53307 39.1373C5.51581 39.0918 5.50694 39.043 5.50696 38.9938C5.50692 38.9446 5.51579 38.8958 5.53304 38.8503C5.55029 38.8048 5.5756 38.7635 5.60751 38.7287C5.63942 38.6938 5.67731 38.6662 5.71901 38.6474C5.76071 38.6286 5.8054 38.6189 5.85054 38.6189H9.97382C10.0189 38.6189 10.0636 38.6286 10.1053 38.6474C10.147 38.6662 10.1849 38.6938 10.2168 38.7287C10.2488 38.7635 10.2741 38.8048 10.2913 38.8503C10.3086 38.8958 10.3174 38.9446 10.3174 38.9938C10.3174 39.043 10.3085 39.0918 10.2913 39.1373C10.274 39.1828 10.2487 39.2241 10.2168 39.2589C10.1849 39.2937 10.147 39.3213 10.1053 39.3401C10.0636 39.359 10.0189 39.3686 9.97382 39.3686Z" fill="currentColor"/>
<path d="M7.91206 42.3673C7.86693 42.3674 7.82224 42.3577 7.78054 42.3389C7.73884 42.32 7.70095 42.2924 7.66904 42.2576C7.63713 42.2228 7.61182 42.1815 7.59457 42.136C7.57731 42.0905 7.56845 42.0417 7.56848 41.9925V38.9931C7.56848 38.7858 7.72214 38.6182 7.91206 38.6182C8.10198 38.6182 8.25564 38.7858 8.25564 38.9931V41.9925C8.25567 42.0417 8.24681 42.0905 8.22955 42.136C8.2123 42.1815 8.18699 42.2228 8.15508 42.2576C8.12317 42.2924 8.08528 42.32 8.04358 42.3389C8.00188 42.3577 7.95719 42.3674 7.91206 42.3673ZM7.91206 36.3699C7.86693 36.3699 7.82223 36.3602 7.78053 36.3414C7.73883 36.3225 7.70094 36.2949 7.66903 36.2601C7.63712 36.2253 7.61182 36.1839 7.59456 36.1384C7.57731 36.0929 7.56845 36.0442 7.56848 35.9949V32.9955C7.56848 32.7883 7.72214 32.6207 7.91206 32.6207C8.10198 32.6207 8.25564 32.7883 8.25564 32.9955V35.9949C8.25567 36.0442 8.24681 36.0929 8.22955 36.1384C8.2123 36.1839 8.187 36.2253 8.15509 36.2601C8.12318 36.2949 8.08529 36.3225 8.04359 36.3414C8.00189 36.3602 7.95719 36.3699 7.91206 36.3699ZM7.91206 30.373C7.86693 30.3731 7.82224 30.3634 7.78054 30.3446C7.73884 30.3258 7.70095 30.2982 7.66904 30.2633C7.63713 30.2285 7.61182 30.1872 7.59457 30.1417C7.57731 30.0962 7.56845 30.0475 7.56848 29.9982V26.9987C7.56848 26.7916 7.72214 26.6239 7.91206 26.6239C8.10198 26.6239 8.25564 26.7916 8.25564 26.9987V29.9982C8.25567 30.0475 8.24681 30.0962 8.22955 30.1417C8.2123 30.1872 8.18699 30.2285 8.15508 30.2633C8.12317 30.2982 8.08528 30.3258 8.04358 30.3446C8.00188 30.3634 7.95719 30.3731 7.91206 30.373ZM36.0878 24.3763C36.0427 24.3764 35.998 24.3667 35.9563 24.3479C35.9146 24.329 35.8767 24.3014 35.8448 24.2666C35.8129 24.2318 35.7875 24.1905 35.7703 24.145C35.753 24.0995 35.7442 24.0507 35.7442 24.0015V21.0021C35.7442 20.7949 35.8979 20.6273 36.0878 20.6273C36.2777 20.6273 36.4314 20.7949 36.4314 21.0021V24.0015C36.4314 24.0507 36.4225 24.0995 36.4053 24.145C36.388 24.1905 36.3627 24.2318 36.3308 24.2666C36.2989 24.3014 36.261 24.329 36.2193 24.3479C36.1776 24.3667 36.1329 24.3764 36.0878 24.3763ZM7.91206 24.3763C7.86693 24.3764 7.82224 24.3667 7.78054 24.3479C7.73884 24.329 7.70095 24.3014 7.66904 24.2666C7.63713 24.2318 7.61182 24.1905 7.59457 24.145C7.57731 24.0995 7.56845 24.0507 7.56848 24.0015V21.0021C7.56848 20.7949 7.72214 20.6273 7.91206 20.6273C8.10198 20.6273 8.25564 20.7949 8.25564 21.0021V24.0015C8.25567 24.0507 8.24681 24.0995 8.22955 24.145C8.2123 24.1905 8.18699 24.2318 8.15508 24.2666C8.12317 24.3014 8.08528 24.329 8.04358 24.3479C8.00188 24.3667 7.95719 24.3764 7.91206 24.3763ZM14.097 24.3763C14.0519 24.3764 14.0072 24.3667 13.9655 24.3479C13.9238 24.329 13.8859 24.3014 13.854 24.2666C13.822 24.2318 13.7967 24.1905 13.7795 24.145C13.7622 24.0995 13.7534 24.0507 13.7534 24.0015V21.0021C13.7534 20.7949 13.9071 20.6273 14.097 20.6273C14.2869 20.6273 14.4406 20.7949 14.4406 21.0021V24.0015C14.4406 24.0507 14.4317 24.0995 14.4145 24.145C14.3972 24.1905 14.3719 24.2318 14.34 24.2666C14.3081 24.3014 14.2702 24.329 14.2285 24.3479C14.1868 24.3667 14.1421 24.3764 14.097 24.3763ZM19.5947 24.3763C19.5496 24.3764 19.5049 24.3667 19.4632 24.3479C19.4215 24.329 19.3836 24.3014 19.3517 24.2666C19.3198 24.2318 19.2945 24.1905 19.2772 24.145C19.2599 24.0995 19.2511 24.0507 19.2511 24.0015V21.0021C19.2511 20.7949 19.4048 20.6273 19.5947 20.6273C19.7847 20.6273 19.9383 20.7949 19.9383 21.0021V24.0015C19.9384 24.0507 19.9295 24.0995 19.9122 24.145C19.895 24.1905 19.8697 24.2318 19.8378 24.2666C19.8059 24.3014 19.768 24.329 19.7263 24.3479C19.6846 24.3667 19.6399 24.3764 19.5947 24.3763ZM25.0923 24.3763C25.0472 24.3764 25.0025 24.3667 24.9608 24.3479C24.9191 24.329 24.8812 24.3014 24.8493 24.2666C24.8174 24.2318 24.7921 24.1905 24.7748 24.145C24.7576 24.0995 24.7487 24.0507 24.7488 24.0015V21.0021C24.7488 20.7949 24.9024 20.6273 25.0923 20.6273C25.2823 20.6273 25.4359 20.7949 25.4359 21.0021V24.0015C25.436 24.0507 25.4271 24.0995 25.4098 24.145C25.3926 24.1905 25.3673 24.2318 25.3354 24.2666C25.3035 24.3014 25.2656 24.329 25.2239 24.3479C25.1822 24.3667 25.1375 24.3764 25.0923 24.3763ZM30.59 24.3763C30.5449 24.3763 30.5002 24.3667 30.4585 24.3478C30.4168 24.329 30.3789 24.3014 30.347 24.2666C30.3151 24.2318 30.2898 24.1905 30.2726 24.145C30.2553 24.0995 30.2464 24.0507 30.2464 24.0015V21.0021C30.2464 20.9528 30.2553 20.9041 30.2726 20.8586C30.2898 20.8131 30.3151 20.7718 30.347 20.737C30.3789 20.7022 30.4168 20.6746 30.4585 20.6557C30.5002 20.6369 30.5449 20.6272 30.59 20.6273C30.6352 20.6272 30.6799 20.6369 30.7216 20.6557C30.7633 20.6745 30.8012 20.7021 30.8331 20.737C30.865 20.7718 30.8903 20.8131 30.9076 20.8586C30.9248 20.9041 30.9337 20.9528 30.9337 21.0021V24.0015C30.9337 24.0507 30.9248 24.0995 30.9076 24.145C30.8903 24.1905 30.865 24.2318 30.8331 24.2666C30.8012 24.3014 30.7633 24.329 30.7216 24.3479C30.6799 24.3667 30.6352 24.3764 30.59 24.3763ZM13.4098 43.1169C13.3647 43.117 13.32 43.1073 13.2783 43.0885C13.2366 43.0697 13.1987 43.0421 13.1668 43.0073C13.1349 42.9724 13.1095 42.9311 13.0923 42.8856C13.075 42.8401 13.0661 42.7914 13.0662 42.7421V41.9925C13.0662 41.7853 13.2199 41.6177 13.4098 41.6177C13.5997 41.6177 13.7534 41.7853 13.7534 41.9925V42.7421C13.7534 42.7914 13.7446 42.8401 13.7273 42.8856C13.7101 42.9311 13.6848 42.9724 13.6528 43.0072C13.6209 43.0421 13.583 43.0697 13.5413 43.0885C13.4996 43.1073 13.455 43.117 13.4098 43.1169ZM16.8458 43.1169C16.8007 43.117 16.756 43.1073 16.7143 43.0885C16.6726 43.0697 16.6347 43.0421 16.6028 43.0072C16.5708 42.9724 16.5455 42.9311 16.5283 42.8856C16.511 42.8401 16.5022 42.7914 16.5022 42.7421V41.2428C16.5022 41.0356 16.6559 40.868 16.8458 40.868C17.0357 40.868 17.1894 41.0356 17.1894 41.2428V42.7421C17.1895 42.7914 17.1806 42.8401 17.1633 42.8856C17.1461 42.9311 17.1207 42.9724 17.0888 43.0073C17.0569 43.0421 17.019 43.0697 16.9773 43.0885C16.9356 43.1073 16.8909 43.117 16.8458 43.1169ZM20.2819 43.1169C20.2368 43.117 20.1921 43.1073 20.1504 43.0885C20.1087 43.0697 20.0708 43.0421 20.0389 43.0072C20.007 42.9724 19.9817 42.9311 19.9644 42.8856C19.9472 42.8401 19.9383 42.7914 19.9383 42.7421V40.4931C19.9383 40.286 20.092 40.1183 20.2819 40.1183C20.4718 40.1183 20.6256 40.286 20.6256 40.4931V42.7421C20.6256 42.7914 20.6167 42.8401 20.5995 42.8856C20.5822 42.9311 20.5569 42.9724 20.525 43.0073C20.493 43.0421 20.4551 43.0697 20.4134 43.0885C20.3717 43.1073 20.327 43.117 20.2819 43.1169ZM23.7179 43.1169C23.6728 43.117 23.6281 43.1073 23.5864 43.0885C23.5447 43.0697 23.5068 43.0421 23.4749 43.0072C23.443 42.9724 23.4177 42.9311 23.4005 42.8856C23.3832 42.8401 23.3743 42.7914 23.3744 42.7421V40.4931C23.3744 40.286 23.528 40.1183 23.7179 40.1183C23.9079 40.1183 24.0615 40.286 24.0615 40.4931V42.7421C24.0616 42.7914 24.0527 42.8401 24.0354 42.8856C24.0182 42.9311 23.9929 42.9724 23.961 43.0072C23.9291 43.0421 23.8912 43.0697 23.8495 43.0885C23.8078 43.1073 23.7631 43.117 23.7179 43.1169ZM27.1541 43.1169C27.1089 43.117 27.0642 43.1073 27.0225 43.0885C26.9808 43.0697 26.943 43.0421 26.911 43.0072C26.8791 42.9724 26.8538 42.9311 26.8366 42.8856C26.8193 42.8401 26.8105 42.7914 26.8105 42.7421V41.2428C26.8105 41.0356 26.9641 40.868 27.1541 40.868C27.344 40.868 27.4976 41.0356 27.4976 41.2428V42.7421C27.4977 42.7914 27.4888 42.8401 27.4716 42.8856C27.4543 42.9311 27.429 42.9724 27.3971 43.0072C27.3652 43.0421 27.3273 43.0697 27.2856 43.0885C27.2439 43.1073 27.1992 43.117 27.1541 43.1169ZM30.59 43.1169C30.5449 43.117 30.5002 43.1073 30.4585 43.0885C30.4168 43.0696 30.3789 43.042 30.347 43.0072C30.3151 42.9724 30.2898 42.9311 30.2726 42.8856C30.2553 42.8401 30.2464 42.7914 30.2464 42.7421V41.9925C30.2464 41.9433 30.2553 41.8945 30.2726 41.849C30.2898 41.8036 30.3151 41.7622 30.347 41.7274C30.3789 41.6926 30.4168 41.665 30.4585 41.6462C30.5002 41.6273 30.5449 41.6177 30.59 41.6177C30.6352 41.6177 30.6799 41.6273 30.7216 41.6461C30.7633 41.665 30.8012 41.6926 30.8331 41.7274C30.865 41.7622 30.8903 41.8035 30.9076 41.849C30.9248 41.8945 30.9337 41.9433 30.9337 41.9925V42.7421C30.9337 42.7914 30.9248 42.8401 30.9076 42.8856C30.8903 42.9311 30.865 42.9724 30.8331 43.0073C30.8012 43.0421 30.7633 43.0697 30.7216 43.0885C30.6799 43.1073 30.6352 43.117 30.59 43.1169ZM16.8458 40.1175C16.8007 40.1175 16.756 40.1079 16.7143 40.0891C16.6726 40.0702 16.6347 40.0426 16.6028 40.0078C16.5708 39.973 16.5455 39.9317 16.5283 39.8862C16.511 39.8407 16.5022 39.7919 16.5022 39.7427C16.5022 34.3764 21.5694 29.8929 21.7849 29.7047C21.9335 29.5766 22.1492 29.6021 22.2677 29.7633C22.2959 29.8017 22.3169 29.8458 22.3295 29.8931C22.3421 29.9404 22.346 29.99 22.3411 30.0389C22.3361 30.0879 22.3224 30.1353 22.3006 30.1784C22.2789 30.2216 22.2495 30.2597 22.2143 30.2904C22.164 30.3343 17.1894 34.7394 17.1894 39.7427C17.1895 39.7919 17.1806 39.8407 17.1633 39.8862C17.1461 39.9317 17.1207 39.973 17.0888 40.0078C17.0569 40.0426 17.019 40.0702 16.9773 40.0891C16.9356 40.1079 16.8909 40.1175 16.8458 40.1175Z" fill="currentColor"/>
<path d="M18.9075 39.3679C18.8624 39.3679 18.8177 39.3582 18.776 39.3394C18.7343 39.3206 18.6965 39.2929 18.6645 39.2581C18.6326 39.2233 18.6073 39.182 18.5901 39.1365C18.5728 39.091 18.5639 39.0423 18.564 38.993C18.564 35.8625 21.6403 32.8432 21.7715 32.7158C21.8398 32.6502 21.929 32.6167 22.0199 32.6226C22.1107 32.6285 22.1957 32.6733 22.2564 32.7473C22.3169 32.8216 22.348 32.9191 22.3427 33.0184C22.3374 33.1176 22.2962 33.2105 22.2282 33.2766C22.1983 33.3052 19.2511 36.2006 19.2511 38.993C19.2511 39.0423 19.2423 39.091 19.225 39.1365C19.2078 39.182 19.1824 39.2233 19.1505 39.2581C19.1186 39.2929 19.0807 39.3206 19.0391 39.3394C18.9974 39.3582 18.9527 39.3679 18.9075 39.3679Z" fill="currentColor"/>
<path d="M25.0911 39.3679C25.046 39.3679 25.0013 39.3582 24.9596 39.3394C24.9179 39.3206 24.88 39.293 24.8481 39.2581C24.8162 39.2233 24.7909 39.182 24.7736 39.1365C24.7564 39.091 24.7475 39.0423 24.7475 38.9931C24.7475 36.2007 21.8011 33.3052 21.7712 33.276C21.7375 33.2433 21.7101 33.2037 21.6904 33.1594C21.6708 33.1152 21.6593 33.0671 21.6567 33.018C21.6541 32.9689 21.6604 32.9198 21.6752 32.8733C21.69 32.8269 21.713 32.7841 21.743 32.7473C21.8037 32.6734 21.8887 32.6286 21.9795 32.6227C22.0703 32.6168 22.1596 32.6503 22.2278 32.7158C22.3591 32.8432 25.4347 35.8625 25.4347 38.9931C25.4347 39.0423 25.4258 39.091 25.4086 39.1365C25.3913 39.182 25.366 39.2233 25.3341 39.2581C25.3022 39.293 25.2643 39.3206 25.2226 39.3394C25.1809 39.3582 25.1362 39.3679 25.0911 39.3679Z" fill="currentColor"/>
<path d="M27.1534 40.1175C27.1083 40.1175 27.0636 40.1079 27.0219 40.089C26.9802 40.0702 26.9423 40.0426 26.9104 40.0078C26.8785 39.973 26.8531 39.9316 26.8359 39.8862C26.8186 39.8407 26.8098 39.7919 26.8098 39.7427C26.8098 34.7329 21.8355 30.3343 21.7852 30.2904C21.7141 30.2282 21.6685 30.1378 21.6584 30.039C21.6484 29.9401 21.6746 29.841 21.7315 29.7633C21.7887 29.686 21.8715 29.6365 21.962 29.6255C22.0525 29.6145 22.1433 29.643 22.2146 29.7047C22.4301 29.8928 27.497 34.3763 27.497 39.7427C27.497 39.7919 27.4881 39.8407 27.4709 39.8862C27.4536 39.9316 27.4283 39.973 27.3964 40.0078C27.3645 40.0426 27.3266 40.0702 27.2849 40.089C27.2432 40.1079 27.1985 40.1175 27.1534 40.1175ZM42.9598 11.6302H1.04008C0.850153 11.6302 0.696411 11.4626 0.696411 11.2554C0.696411 11.0482 0.850153 10.8805 1.04008 10.8805H42.9599C43.1499 10.8805 43.3035 11.0482 43.3035 11.2554C43.3035 11.4626 43.1498 11.6302 42.9598 11.6302Z" fill="currentColor"/>
<path d="M42.9598 19.1271C42.9147 19.1271 42.87 19.1174 42.8283 19.0985C42.7866 19.0797 42.7487 19.0521 42.7168 19.0173C42.6849 18.9825 42.6596 18.9411 42.6423 18.8956C42.6251 18.8501 42.6162 18.8014 42.6162 18.7522V11.2553C42.6162 11.2061 42.6251 11.1574 42.6423 11.1119C42.6596 11.0664 42.6849 11.025 42.7168 10.9902C42.7487 10.9554 42.7866 10.9278 42.8283 10.9089C42.87 10.8901 42.9147 10.8804 42.9598 10.8804C43.0049 10.8804 43.0496 10.8901 43.0913 10.9089C43.133 10.9278 43.1709 10.9554 43.2028 10.9902C43.2348 11.025 43.2601 11.0663 43.2773 11.1118C43.2946 11.1573 43.3035 11.2061 43.3035 11.2553V18.7522C43.3035 18.8014 43.2946 18.8502 43.2774 18.8957C43.2601 18.9412 43.2348 18.9825 43.2029 19.0174C43.171 19.0522 43.1331 19.0798 43.0914 19.0986C43.0496 19.1174 43.0049 19.1271 42.9598 19.1271Z" fill="currentColor"/>
<path d="M42.9598 19.1271H1.04008C0.994938 19.1271 0.950239 19.1174 0.908534 19.0986C0.866829 19.0797 0.828934 19.0521 0.797018 19.0173C0.765101 18.9825 0.739788 18.9412 0.722525 18.8957C0.705262 18.8502 0.696389 18.8014 0.696411 18.7522C0.696389 18.7029 0.705263 18.6542 0.722527 18.6087C0.73979 18.5632 0.765105 18.5218 0.797023 18.487C0.828941 18.4522 0.866835 18.4246 0.90854 18.4058C0.950245 18.387 0.994942 18.3773 1.04008 18.3773H42.9599C43.005 18.3773 43.0497 18.387 43.0914 18.4058C43.1331 18.4246 43.171 18.4522 43.2029 18.487C43.2348 18.5218 43.2602 18.5632 43.2774 18.6087C43.2947 18.6542 43.3036 18.7029 43.3035 18.7522C43.3036 18.8014 43.2947 18.8502 43.2774 18.8957C43.2601 18.9412 43.2348 18.9825 43.2029 19.0173C43.171 19.0522 43.1331 19.0798 43.0914 19.0986C43.0496 19.1174 43.0049 19.1271 42.9598 19.1271ZM7.56849 15.3787C3.2821 15.3787 2.15297 13.0227 2.10699 12.9224C2.06625 12.8335 2.05956 12.7305 2.08837 12.6362C2.11718 12.5419 2.17915 12.4639 2.26065 12.4194C2.34167 12.375 2.43554 12.3674 2.5217 12.3983C2.60786 12.4291 2.67931 12.496 2.72041 12.5842C2.76072 12.6682 3.74186 14.6289 7.56849 14.6289C11.4605 14.6289 13.1303 12.5351 13.1467 12.5138C13.1756 12.4761 13.2111 12.4449 13.2511 12.4222C13.2911 12.3995 13.3349 12.3856 13.3798 12.3814C13.4248 12.3772 13.47 12.3827 13.513 12.3976C13.556 12.4126 13.5958 12.4366 13.6303 12.4685C13.7 12.532 13.7437 12.6231 13.7519 12.7218C13.76 12.8205 13.732 12.9187 13.6738 12.9949C13.5994 13.0922 11.8038 15.3787 7.56849 15.3787Z" fill="currentColor"/>
<path d="M7.56855 16.878C3.28216 16.878 2.15303 14.5221 2.10705 14.4217C2.06632 14.3328 2.05962 14.2299 2.08844 14.1356C2.11725 14.0412 2.17921 13.9633 2.26071 13.9188C2.34174 13.8743 2.4356 13.8667 2.52176 13.8976C2.60792 13.9285 2.67937 13.9953 2.72047 14.0835C2.76078 14.1677 3.74193 16.1283 7.56855 16.1283C11.4606 16.1283 13.1303 14.0345 13.1468 14.0132C13.1757 13.9755 13.2112 13.9444 13.2512 13.9217C13.2913 13.899 13.335 13.8852 13.3799 13.8809C13.4248 13.8767 13.4701 13.8822 13.5131 13.8971C13.556 13.912 13.5959 13.9361 13.6303 13.9678C13.7 14.0314 13.7438 14.1225 13.7519 14.2212C13.7601 14.3199 13.732 14.4181 13.6739 14.4942C13.5995 14.5916 11.8039 16.878 7.56855 16.878ZM36.4314 15.3786C32.1961 15.3786 30.4009 13.0922 30.3257 12.9949C30.2678 12.9186 30.2399 12.8203 30.2482 12.7217C30.2565 12.623 30.3004 12.5319 30.3701 12.4685C30.5137 12.3352 30.7311 12.3558 30.8532 12.5138C30.8694 12.5351 32.5391 14.6289 36.4314 14.6289C40.2587 14.6289 41.2392 12.6676 41.2795 12.5841C41.3661 12.4026 41.5721 12.3264 41.7413 12.4223C41.909 12.5161 41.9775 12.7386 41.8929 12.9223C41.8472 13.0227 40.7178 15.3786 36.4314 15.3786Z" fill="currentColor"/>
<path d="M36.4314 16.878C32.196 16.878 30.4009 14.5916 30.3257 14.4942C30.2677 14.4179 30.2398 14.3197 30.2481 14.221C30.2565 14.1224 30.3003 14.0313 30.37 13.9678C30.5136 13.8346 30.731 13.8551 30.8532 14.0132C30.8693 14.0345 32.539 16.1283 36.4314 16.1283C40.2587 16.1283 41.2391 14.1669 41.2794 14.0835C41.366 13.9012 41.5721 13.8265 41.7412 13.9217C41.9089 14.0154 41.9774 14.238 41.8929 14.4217C41.8471 14.5221 40.7177 16.878 36.4314 16.878Z" fill="currentColor"/>
<path d="M22 17.6277C16.0844 17.6277 13.2832 14.6458 13.1669 14.5191C13.1026 14.4489 13.0665 14.3538 13.0664 14.2546C13.0663 14.1553 13.1023 14.0601 13.1665 13.9898C13.2309 13.9196 13.3181 13.8801 13.4091 13.8798C13.5002 13.8795 13.5876 13.9185 13.6523 13.9883C13.6789 14.0176 16.3885 16.878 22 16.878C27.6338 16.878 30.3202 14.0176 30.3471 13.9891C30.379 13.9543 30.4169 13.9267 30.4586 13.9078C30.5003 13.889 30.5449 13.8793 30.59 13.8793C30.6352 13.8793 30.6798 13.889 30.7215 13.9078C30.7632 13.9267 30.8011 13.9543 30.833 13.9891C30.8649 14.0239 30.8902 14.0652 30.9075 14.1107C30.9247 14.1561 30.9336 14.2049 30.9336 14.2541C30.9336 14.3033 30.9247 14.3521 30.9075 14.3976C30.8902 14.443 30.8649 14.4843 30.833 14.5191C30.7162 14.6458 27.915 17.6277 22 17.6277Z" fill="currentColor"/>
<path d="M22 16.1284C16.0845 16.1284 13.2832 13.1465 13.1669 13.0198C13.1026 12.9496 13.0665 12.8545 13.0664 12.7552C13.0664 12.656 13.1024 12.5608 13.1665 12.4905C13.2309 12.4203 13.3181 12.3808 13.4092 12.3805C13.5002 12.3802 13.5876 12.4192 13.6523 12.489C13.6789 12.5183 16.3885 15.3787 22 15.3787C27.6339 15.3787 30.3203 12.5183 30.3472 12.4898C30.3791 12.4549 30.4169 12.4273 30.4586 12.4085C30.5003 12.3896 30.545 12.3799 30.5901 12.3799C30.6352 12.3799 30.6799 12.3896 30.7215 12.4085C30.7632 12.4273 30.8011 12.4549 30.833 12.4898C30.8649 12.5246 30.8902 12.5659 30.9075 12.6113C30.9247 12.6568 30.9336 12.7056 30.9336 12.7548C30.9336 12.804 30.9247 12.8528 30.9075 12.8982C30.8902 12.9437 30.8649 12.985 30.833 13.0198C30.7163 13.1465 27.915 16.1284 22 16.1284ZM40.8982 39.3686C40.8531 39.3687 40.8084 39.359 40.7667 39.3401C40.725 39.3213 40.6871 39.2937 40.6552 39.2589C40.6233 39.2241 40.598 39.1828 40.5808 39.1373C40.5635 39.0918 40.5546 39.043 40.5546 38.9938V33.746C40.5546 33.5387 40.7083 33.3711 40.8982 33.3711C41.0882 33.3711 41.2418 33.5387 41.2418 33.746V38.9938C41.2418 39.043 41.233 39.0918 41.2157 39.1373C41.1984 39.1828 41.1731 39.2241 41.1412 39.2589C41.1093 39.2937 41.0714 39.3213 41.0297 39.3401C40.988 39.359 40.9434 39.3687 40.8982 39.3686ZM40.8982 29.6227C40.8531 29.6227 40.8084 29.613 40.7667 29.5942C40.725 29.5754 40.6871 29.5478 40.6552 29.513C40.6233 29.4782 40.598 29.4368 40.5807 29.3913C40.5635 29.3458 40.5546 29.2971 40.5546 29.2478V24C40.5546 23.7928 40.7083 23.6252 40.8982 23.6252C41.0882 23.6252 41.2418 23.7928 41.2418 24V29.2478C41.2418 29.2971 41.233 29.3458 41.2157 29.3913C41.1985 29.4368 41.1732 29.4782 41.1413 29.513C41.1093 29.5478 41.0714 29.5754 41.0298 29.5942C40.988 29.613 40.9434 29.6227 40.8982 29.6227ZM3.12207 31.8717C2.9325 31.8717 2.77514 31.7041 2.77514 31.4969C2.77514 31.2897 2.92545 31.1221 3.11537 31.1221H3.12207C3.312 31.1221 3.46565 31.2897 3.46565 31.4969C3.46565 31.7041 3.312 31.8717 3.12207 31.8717ZM3.10162 39.3686C3.0565 39.3687 3.01181 39.359 2.97011 39.3401C2.92842 39.3213 2.89053 39.2937 2.85862 39.2589C2.82672 39.2241 2.80141 39.1828 2.78415 39.1373C2.76689 39.0918 2.75802 39.043 2.75804 38.9938V33.746C2.75804 33.5387 2.9117 33.3711 3.10162 33.3711C3.29154 33.3711 3.44529 33.5387 3.44529 33.746V38.9938C3.4453 39.043 3.43641 39.0918 3.41915 39.1373C3.40188 39.1828 3.37656 39.2241 3.34465 39.2589C3.31273 39.2937 3.27484 39.3213 3.23314 39.3401C3.19144 39.359 3.14675 39.3687 3.10162 39.3686ZM3.10162 29.6227C3.05649 29.6227 3.0118 29.613 2.9701 29.5942C2.9284 29.5754 2.89051 29.5478 2.8586 29.513C2.82669 29.4782 2.80138 29.4368 2.78413 29.3913C2.76687 29.3458 2.75801 29.2971 2.75804 29.2478V24C2.75804 23.7928 2.9117 23.6252 3.10162 23.6252C3.29154 23.6252 3.44529 23.7928 3.44529 24V29.2478C3.44531 29.2971 3.43643 29.3458 3.41917 29.3913C3.40191 29.4368 3.37659 29.4782 3.34467 29.513C3.31276 29.5478 3.27486 29.5754 3.23316 29.5942C3.19145 29.613 3.14675 29.6227 3.10162 29.6227ZM2.41446 45.366C2.36933 45.366 2.32464 45.3564 2.28293 45.3375C2.24123 45.3187 2.20333 45.2911 2.17141 45.2563C2.13949 45.2215 2.11418 45.1802 2.09692 45.1347C2.07965 45.0892 2.07078 45.0404 2.0708 44.9912V44.2416C2.0708 44.0343 2.22454 43.8667 2.41446 43.8667C2.60439 43.8667 2.75804 44.0343 2.75804 44.2416V44.9912C2.75808 45.0404 2.74921 45.0892 2.73196 45.1347C2.7147 45.1802 2.6894 45.2215 2.65749 45.2563C2.62558 45.2911 2.58769 45.3187 2.54599 45.3375C2.50429 45.3564 2.45959 45.366 2.41446 45.366ZM4.47602 45.366C4.43089 45.366 4.3862 45.3564 4.3445 45.3375C4.3028 45.3187 4.26491 45.2911 4.233 45.2563C4.20109 45.2215 4.17578 45.1802 4.15853 45.1347C4.14127 45.0892 4.13241 45.0404 4.13244 44.9912V44.2416C4.13244 44.0343 4.2861 43.8667 4.47602 43.8667C4.66594 43.8667 4.81968 44.0343 4.81968 44.2416V44.9912C4.81971 45.0404 4.81083 45.0892 4.79357 45.1347C4.7763 45.1802 4.75099 45.2215 4.71907 45.2563C4.68715 45.2911 4.64926 45.3187 4.60755 45.3375C4.56585 45.3564 4.52115 45.366 4.47602 45.366ZM6.53766 45.366C6.49253 45.366 6.44784 45.3564 6.40614 45.3375C6.36444 45.3187 6.32655 45.2911 6.29464 45.2563C6.26273 45.2215 6.23742 45.1802 6.22017 45.1347C6.20291 45.0892 6.19405 45.0404 6.19408 44.9912V44.2416C6.19408 44.0343 6.34774 43.8667 6.53766 43.8667C6.72758 43.8667 6.88124 44.0343 6.88124 44.2416V44.9912C6.88127 45.0404 6.87241 45.0892 6.85515 45.1347C6.8379 45.1802 6.81259 45.2215 6.78068 45.2563C6.74877 45.2911 6.71088 45.3187 6.66918 45.3375C6.62748 45.3564 6.58279 45.366 6.53766 45.366ZM8.5993 45.366C8.55417 45.366 8.50947 45.3564 8.46777 45.3375C8.42606 45.3187 8.38817 45.2911 8.35625 45.2563C8.32433 45.2215 8.29902 45.1802 8.28175 45.1347C8.26449 45.0892 8.25561 45.0404 8.25564 44.9912V44.2416C8.25564 44.0343 8.40938 43.8667 8.5993 43.8667C8.78922 43.8667 8.94288 44.0343 8.94288 44.2416V44.9912C8.94291 45.0404 8.93405 45.0892 8.9168 45.1347C8.89954 45.1802 8.87423 45.2215 8.84232 45.2563C8.81041 45.2911 8.77252 45.3187 8.73082 45.3375C8.68912 45.3564 8.64443 45.366 8.5993 45.366Z" fill="currentColor"/>
<path d="M10.661 45.366C10.6158 45.366 10.5711 45.3564 10.5294 45.3376C10.4877 45.3187 10.4498 45.2911 10.4179 45.2563C10.386 45.2215 10.3607 45.1802 10.3435 45.1347C10.3262 45.0892 10.3173 45.0404 10.3174 44.9912V44.2416C10.3174 44.0343 10.471 43.8667 10.661 43.8667C10.8509 43.8667 11.0046 44.0343 11.0046 44.2416V44.9912C11.0046 45.0404 10.9958 45.0892 10.9785 45.1347C10.9612 45.1802 10.9359 45.2215 10.904 45.2563C10.8721 45.2911 10.8342 45.3187 10.7925 45.3376C10.7508 45.3564 10.7061 45.366 10.661 45.366Z" fill="currentColor"/>
<path d="M12.7226 45.366C12.6775 45.366 12.6328 45.3564 12.5911 45.3376C12.5494 45.3187 12.5115 45.2911 12.4796 45.2563C12.4477 45.2215 12.4224 45.1802 12.4051 45.1347C12.3879 45.0892 12.379 45.0404 12.379 44.9912V44.2416C12.379 44.0343 12.5327 43.8667 12.7226 43.8667C12.9125 43.8667 13.0662 44.0343 13.0662 44.2416V44.9912C13.0662 45.0404 13.0574 45.0892 13.0401 45.1347C13.0228 45.1802 12.9975 45.2215 12.9656 45.2563C12.9337 45.2911 12.8958 45.3187 12.8541 45.3376C12.8124 45.3564 12.7677 45.366 12.7226 45.366Z" fill="currentColor"/>
<path d="M14.7842 45.366C14.7391 45.366 14.6944 45.3564 14.6527 45.3376C14.611 45.3187 14.5731 45.2911 14.5412 45.2563C14.5092 45.2215 14.4839 45.1802 14.4667 45.1347C14.4494 45.0892 14.4405 45.0404 14.4406 44.9912V44.2416C14.4406 44.0343 14.5943 43.8667 14.7842 43.8667C14.9741 43.8667 15.1278 44.0343 15.1278 44.2416V44.9912C15.1278 45.0404 15.119 45.0892 15.1017 45.1347C15.0845 45.1802 15.0591 45.2215 15.0272 45.2563C14.9953 45.2911 14.9574 45.3187 14.9157 45.3376C14.874 45.3564 14.8293 45.366 14.7842 45.366Z" fill="currentColor"/>
<path d="M16.8458 45.366C16.8006 45.366 16.756 45.3564 16.7143 45.3376C16.6726 45.3187 16.6347 45.2911 16.6028 45.2563C16.5708 45.2215 16.5455 45.1802 16.5283 45.1347C16.511 45.0892 16.5022 45.0404 16.5022 44.9912V44.2416C16.5022 44.0343 16.6559 43.8667 16.8458 43.8667C17.0357 43.8667 17.1894 44.0343 17.1894 44.2416V44.9912C17.1895 45.0404 17.1806 45.0892 17.1633 45.1347C17.1461 45.1802 17.1207 45.2215 17.0888 45.2563C17.0569 45.2911 17.019 45.3187 16.9773 45.3376C16.9356 45.3564 16.8909 45.366 16.8458 45.366Z" fill="currentColor"/>
<path d="M18.9075 45.366C18.8624 45.366 18.8177 45.3564 18.776 45.3376C18.7343 45.3187 18.6964 45.2911 18.6645 45.2563C18.6326 45.2215 18.6073 45.1802 18.59 45.1347C18.5728 45.0892 18.5639 45.0404 18.564 44.9912V44.2416C18.564 44.0343 18.7176 43.8667 18.9075 43.8667C19.0975 43.8667 19.2511 44.0343 19.2511 44.2416V44.9912C19.2512 45.0404 19.2423 45.0892 19.225 45.1347C19.2078 45.1802 19.1825 45.2215 19.1506 45.2563C19.1187 45.2911 19.0808 45.3187 19.0391 45.3376C18.9974 45.3564 18.9527 45.366 18.9075 45.366Z" fill="currentColor"/>
<path d="M20.9692 45.366C20.9241 45.366 20.8794 45.3564 20.8377 45.3376C20.796 45.3187 20.7581 45.2911 20.7262 45.2563C20.6943 45.2215 20.6689 45.1802 20.6517 45.1347C20.6344 45.0892 20.6256 45.0404 20.6256 44.9912V44.2416C20.6256 44.0343 20.7793 43.8667 20.9692 43.8667C21.1591 43.8667 21.3128 44.0343 21.3128 44.2416V44.9912C21.3128 45.0404 21.3039 45.0892 21.2867 45.1347C21.2694 45.1802 21.2441 45.2215 21.2122 45.2563C21.1803 45.2911 21.1424 45.3187 21.1007 45.3376C21.059 45.3564 21.0143 45.366 20.9692 45.366Z" fill="currentColor"/>
<path d="M23.0307 45.366C22.9856 45.366 22.9409 45.3564 22.8992 45.3376C22.8575 45.3187 22.8196 45.2911 22.7877 45.2563C22.7558 45.2215 22.7305 45.1802 22.7132 45.1347C22.696 45.0892 22.6871 45.0404 22.6871 44.9912V44.2416C22.6871 44.1923 22.696 44.1436 22.7132 44.0981C22.7305 44.0526 22.7558 44.0112 22.7877 43.9764C22.8196 43.9416 22.8575 43.914 22.8992 43.8952C22.9409 43.8763 22.9856 43.8666 23.0307 43.8667C23.0759 43.8666 23.1206 43.8763 23.1623 43.8951C23.204 43.914 23.2419 43.9416 23.2738 43.9764C23.3057 44.0112 23.331 44.0526 23.3483 44.0981C23.3655 44.1436 23.3744 44.1923 23.3744 44.2416V44.9912C23.3744 45.0404 23.3655 45.0892 23.3483 45.1347C23.331 45.1802 23.3057 45.2215 23.2738 45.2563C23.2418 45.2911 23.204 45.3187 23.1622 45.3376C23.1205 45.3564 23.0758 45.366 23.0307 45.366Z" fill="currentColor"/>
<path d="M25.0924 45.366C25.0472 45.366 25.0025 45.3564 24.9608 45.3376C24.9191 45.3187 24.8812 45.2911 24.8493 45.2563C24.8174 45.2215 24.7921 45.1802 24.7749 45.1347C24.7576 45.0892 24.7487 45.0404 24.7488 44.9912V44.2416C24.7488 44.0343 24.9024 43.8667 25.0924 43.8667C25.2823 43.8667 25.4359 44.0343 25.4359 44.2416V44.9912C25.436 45.0404 25.4271 45.0892 25.4099 45.1347C25.3926 45.1802 25.3673 45.2215 25.3354 45.2563C25.3035 45.2911 25.2656 45.3187 25.2239 45.3376C25.1822 45.3564 25.1375 45.366 25.0924 45.366Z" fill="currentColor"/>
<path d="M27.1541 45.366C27.109 45.366 27.0643 45.3564 27.0226 45.3376C26.9809 45.3187 26.943 45.2911 26.9111 45.2563C26.8792 45.2215 26.8539 45.1802 26.8366 45.1347C26.8194 45.0892 26.8105 45.0404 26.8105 44.9912V44.2416C26.8105 44.0343 26.9642 43.8667 27.1541 43.8667C27.344 43.8667 27.4977 44.0343 27.4977 44.2416V44.9912C27.4977 45.0404 27.4889 45.0892 27.4716 45.1347C27.4544 45.1802 27.4291 45.2215 27.3971 45.2563C27.3652 45.2911 27.3273 45.3187 27.2856 45.3376C27.2439 45.3564 27.1993 45.366 27.1541 45.366Z" fill="currentColor"/>
<path d="M29.2157 45.366C29.1706 45.366 29.1259 45.3564 29.0842 45.3376C29.0425 45.3187 29.0046 45.2911 28.9727 45.2563C28.9408 45.2215 28.9155 45.1802 28.8982 45.1347C28.8809 45.0892 28.872 45.0404 28.8721 44.9912V44.2416C28.872 44.1923 28.8809 44.1436 28.8982 44.0981C28.9154 44.0526 28.9407 44.0112 28.9727 43.9764C29.0046 43.9416 29.0425 43.914 29.0842 43.8951C29.1259 43.8763 29.1706 43.8666 29.2157 43.8667C29.2609 43.8666 29.3056 43.8763 29.3473 43.8952C29.389 43.914 29.4269 43.9416 29.4588 43.9764C29.4907 44.0112 29.516 44.0526 29.5332 44.0981C29.5505 44.1436 29.5593 44.1923 29.5593 44.2416V44.9912C29.5593 45.0404 29.5505 45.0892 29.5332 45.1347C29.5159 45.1801 29.4906 45.2215 29.4587 45.2563C29.4268 45.2911 29.3889 45.3187 29.3472 45.3375C29.3055 45.3564 29.2609 45.366 29.2157 45.366Z" fill="currentColor"/>
<path d="M31.2773 45.366C31.2322 45.366 31.1875 45.3564 31.1458 45.3376C31.1041 45.3187 31.0662 45.2911 31.0343 45.2563C31.0024 45.2215 30.9771 45.1802 30.9598 45.1347C30.9425 45.0892 30.9337 45.0404 30.9337 44.9912V44.2416C30.9337 44.0343 31.0874 43.8667 31.2773 43.8667C31.4672 43.8667 31.6209 44.0343 31.6209 44.2416V44.9912C31.6209 45.0404 31.612 45.0892 31.5948 45.1347C31.5775 45.1802 31.5522 45.2215 31.5203 45.2563C31.4884 45.2911 31.4505 45.3187 31.4088 45.3376C31.3671 45.3564 31.3224 45.366 31.2773 45.366Z" fill="currentColor"/>
<path d="M33.3389 45.366C33.2938 45.366 33.2491 45.3564 33.2074 45.3376C33.1657 45.3187 33.1278 45.2911 33.0959 45.2563C33.0639 45.2215 33.0386 45.1802 33.0214 45.1347C33.0041 45.0892 32.9952 45.0404 32.9952 44.9912V44.2416C32.9952 44.0343 33.149 43.8667 33.3389 43.8667C33.5288 43.8667 33.6825 44.0343 33.6825 44.2416V44.9912C33.6825 45.0404 33.6737 45.0892 33.6564 45.1347C33.6391 45.1802 33.6138 45.2215 33.5819 45.2563C33.55 45.2911 33.5121 45.3187 33.4704 45.3376C33.4287 45.3564 33.384 45.366 33.3389 45.366Z" fill="currentColor"/>
<path d="M35.4006 45.366C35.3555 45.366 35.3108 45.3564 35.2691 45.3375C35.2274 45.3187 35.1895 45.2911 35.1576 45.2563C35.1257 45.2215 35.1004 45.1801 35.0831 45.1347C35.0659 45.0892 35.057 45.0404 35.057 44.9912V44.2416C35.057 44.1923 35.0658 44.1436 35.0831 44.0981C35.1003 44.0526 35.1256 44.0112 35.1576 43.9764C35.1895 43.9416 35.2274 43.914 35.2691 43.8952C35.3108 43.8763 35.3555 43.8666 35.4006 43.8667C35.4457 43.8666 35.4904 43.8763 35.5321 43.8951C35.5738 43.914 35.6117 43.9416 35.6437 43.9764C35.6756 44.0112 35.7009 44.0526 35.7182 44.0981C35.7354 44.1436 35.7443 44.1923 35.7442 44.2416V44.9912C35.7443 45.0404 35.7354 45.0892 35.7181 45.1347C35.7009 45.1802 35.6756 45.2215 35.6436 45.2563C35.6117 45.2911 35.5738 45.3187 35.5321 45.3376C35.4904 45.3564 35.4457 45.366 35.4006 45.366Z" fill="currentColor"/>
<path d="M37.4622 45.366C37.4171 45.366 37.3724 45.3564 37.3307 45.3376C37.289 45.3187 37.2511 45.2911 37.2192 45.2563C37.1873 45.2215 37.162 45.1802 37.1447 45.1347C37.1275 45.0892 37.1186 45.0404 37.1187 44.9912V44.2416C37.1187 44.0343 37.2723 43.8667 37.4622 43.8667C37.6522 43.8667 37.8058 44.0343 37.8058 44.2416V44.9912C37.8058 45.0404 37.797 45.0892 37.7797 45.1347C37.7625 45.1802 37.7372 45.2215 37.7053 45.2563C37.6733 45.2911 37.6355 45.3187 37.5938 45.3376C37.5521 45.3564 37.5074 45.366 37.4622 45.366Z" fill="currentColor"/>
<path d="M39.5239 45.366C39.4787 45.366 39.4341 45.3564 39.3924 45.3376C39.3507 45.3187 39.3128 45.2911 39.2809 45.2563C39.2489 45.2215 39.2236 45.1802 39.2064 45.1347C39.1891 45.0892 39.1803 45.0404 39.1803 44.9912V44.2416C39.1803 44.0343 39.334 43.8667 39.5239 43.8667C39.7138 43.8667 39.8675 44.0343 39.8675 44.2416V44.9912C39.8675 45.0404 39.8586 45.0892 39.8414 45.1347C39.8241 45.1802 39.7988 45.2215 39.7669 45.2563C39.735 45.2911 39.6971 45.3187 39.6554 45.3376C39.6137 45.3564 39.569 45.366 39.5239 45.366Z" fill="currentColor"/>
<path d="M41.5855 45.366C41.5404 45.366 41.4957 45.3564 41.454 45.3376C41.4122 45.3187 41.3744 45.2911 41.3424 45.2563C41.3105 45.2215 41.2852 45.1802 41.2679 45.1347C41.2507 45.0892 41.2418 45.0404 41.2418 44.9912V44.2416C41.2418 44.1923 41.2507 44.1436 41.2679 44.0981C41.2852 44.0526 41.3105 44.0112 41.3424 43.9764C41.3743 43.9416 41.4122 43.914 41.4539 43.8951C41.4956 43.8763 41.5403 43.8666 41.5855 43.8667C41.6306 43.8666 41.6753 43.8763 41.717 43.8952C41.7587 43.914 41.7966 43.9416 41.8285 43.9764C41.8604 44.0112 41.8857 44.0526 41.903 44.0981C41.9202 44.1436 41.9291 44.1923 41.9291 44.2416V44.9912C41.9291 45.0404 41.9202 45.0892 41.903 45.1347C41.8857 45.1801 41.8604 45.2215 41.8285 45.2563C41.7966 45.2911 41.7587 45.3187 41.717 45.3375C41.6753 45.3564 41.6306 45.366 41.5855 45.366Z" fill="currentColor"/>
<path d="M14.7842 10.1308C14.7391 10.1308 14.6944 10.1212 14.6527 10.1023C14.611 10.0835 14.5731 10.0559 14.5412 10.0211C14.5092 9.9863 14.4839 9.94496 14.4667 9.89947C14.4494 9.85398 14.4405 9.80522 14.4406 9.75599V7.50692C14.4406 7.29974 14.5943 7.13211 14.7842 7.13211C14.9741 7.13211 15.1278 7.29974 15.1278 7.50692V9.75599C15.1278 9.80522 15.119 9.85397 15.1017 9.89946C15.0845 9.94496 15.0591 9.98629 15.0272 10.0211C14.9953 10.0559 14.9574 10.0835 14.9157 10.1023C14.874 10.1212 14.8293 10.1308 14.7842 10.1308ZM18.2203 10.1308C18.1752 10.1308 18.1305 10.1212 18.0888 10.1023C18.0471 10.0835 18.0092 10.0559 17.9773 10.0211C17.9454 9.9863 17.9201 9.94496 17.9028 9.89947C17.8855 9.85398 17.8767 9.80522 17.8767 9.75599V7.50692C17.8767 7.29974 18.0304 7.13211 18.2203 7.13211C18.4103 7.13211 18.5639 7.29974 18.5639 7.50692V9.75599C18.564 9.80522 18.5551 9.85397 18.5378 9.89946C18.5206 9.94496 18.4953 9.98629 18.4634 10.0211C18.4315 10.0559 18.3936 10.0835 18.3519 10.1023C18.3102 10.1212 18.2655 10.1308 18.2203 10.1308Z" fill="currentColor"/>
<path d="M18.2204 7.88174H14.7843C14.5944 7.88174 14.4407 7.71411 14.4407 7.50693C14.4407 7.29974 14.5944 7.13211 14.7843 7.13211H18.2204C18.4103 7.13211 18.564 7.29974 18.564 7.50693C18.564 7.71411 18.4103 7.88174 18.2204 7.88174ZM16.5022 7.13211C15.9338 7.13211 15.4714 6.62764 15.4714 6.00758C15.4714 5.57127 15.7929 4.13333 16.5022 4.13333C17.2116 4.13333 17.533 5.57118 17.533 6.00758C17.533 6.62764 17.0707 7.13211 16.5022 7.13211ZM16.5022 4.91455C16.3549 5.09464 16.1587 5.69783 16.1587 6.00758C16.1587 6.21402 16.3127 6.38239 16.5022 6.38239C16.6918 6.38239 16.8458 6.21402 16.8458 6.00758C16.8458 5.69783 16.6495 5.09464 16.5022 4.91455ZM20.2819 10.1308C20.2368 10.1308 20.1921 10.1212 20.1504 10.1023C20.1087 10.0835 20.0708 10.0559 20.0389 10.0211C20.007 9.98629 19.9817 9.94496 19.9644 9.89947C19.9472 9.85398 19.9383 9.80522 19.9384 9.75599V4.50824C19.9384 4.30105 20.092 4.13333 20.2819 4.13333C20.4719 4.13333 20.6256 4.30105 20.6256 4.50824V9.75608C20.6256 9.80531 20.6167 9.85406 20.5995 9.89954C20.5822 9.94502 20.5569 9.98634 20.525 10.0211C20.493 10.0559 20.4551 10.0835 20.4134 10.1024C20.3717 10.1212 20.3271 10.1308 20.2819 10.1308ZM23.718 10.1308C23.6728 10.1308 23.6282 10.1212 23.5865 10.1023C23.5448 10.0835 23.5069 10.0559 23.475 10.0211C23.443 9.98629 23.4177 9.94496 23.4005 9.89947C23.3832 9.85398 23.3744 9.80522 23.3744 9.75599V4.50824C23.3744 4.30105 23.5281 4.13333 23.718 4.13333C23.9079 4.13333 24.0616 4.30105 24.0616 4.50824V9.75608C24.0616 9.80531 24.0527 9.85405 24.0354 9.89953C24.0182 9.94501 23.9929 9.98633 23.961 10.0211C23.9291 10.0559 23.8912 10.0835 23.8495 10.1024C23.8078 10.1212 23.7631 10.1308 23.718 10.1308Z" fill="currentColor"/>
<path d="M23.718 4.88305H20.2819C20.092 4.88305 19.9384 4.71543 19.9384 4.50824C19.9384 4.30105 20.092 4.13333 20.2819 4.13333H23.718C23.9079 4.13333 24.0616 4.30105 24.0616 4.50824C24.0616 4.71543 23.9079 4.88305 23.718 4.88305ZM22 4.13333C21.4315 4.13333 20.9692 3.62896 20.9692 3.0088C20.9692 2.57249 21.2906 1.13455 22 1.13455C22.7093 1.13455 23.0307 2.5724 23.0307 3.0088C23.0307 3.62896 22.5684 4.13333 22 4.13333ZM22 1.91577C21.8526 2.09586 21.6563 2.69915 21.6563 3.0088C21.6564 3.1082 21.6927 3.20348 21.7571 3.27376C21.8215 3.34405 21.9089 3.38358 22 3.38371C22.0911 3.38356 22.1784 3.34401 22.2428 3.27373C22.3072 3.20345 22.3435 3.10818 22.3436 3.0088C22.3436 2.69915 22.1473 2.09586 22 1.91577ZM25.7795 10.1308C25.7344 10.1308 25.6897 10.1211 25.648 10.1023C25.6063 10.0835 25.5684 10.0559 25.5365 10.0211C25.5046 9.98627 25.4793 9.94494 25.4621 9.89945C25.4448 9.85397 25.4359 9.80522 25.4359 9.75599V7.50693C25.4359 7.4577 25.4448 7.40895 25.4621 7.36346C25.4793 7.31798 25.5046 7.27665 25.5365 7.24184C25.5684 7.20703 25.6063 7.17942 25.648 7.16059C25.6897 7.14177 25.7344 7.13209 25.7795 7.13211C25.8247 7.13208 25.8694 7.14175 25.9111 7.16057C25.9528 7.17939 25.9907 7.207 26.0226 7.24181C26.0545 7.27662 26.0798 7.31795 26.0971 7.36344C26.1143 7.40893 26.1232 7.45769 26.1232 7.50693V9.75599C26.1232 9.80523 26.1143 9.85398 26.0971 9.89948C26.0798 9.94497 26.0545 9.9863 26.0226 10.0211C25.9907 10.0559 25.9528 10.0835 25.9111 10.1023C25.8694 10.1212 25.8247 10.1308 25.7795 10.1308ZM29.2157 10.1308C29.1706 10.1308 29.1259 10.1212 29.0842 10.1023C29.0425 10.0835 29.0046 10.0559 28.9727 10.0211C28.9408 9.9863 28.9155 9.94497 28.8982 9.89948C28.8809 9.85398 28.8721 9.80523 28.8721 9.75599V7.50693C28.8721 7.45769 28.8809 7.40893 28.8982 7.36344C28.9155 7.31795 28.9408 7.27662 28.9727 7.24181C29.0046 7.207 29.0425 7.17939 29.0842 7.16057C29.1259 7.14175 29.1706 7.13208 29.2157 7.13211C29.2609 7.13209 29.3056 7.14177 29.3472 7.16059C29.3889 7.17942 29.4268 7.20703 29.4587 7.24184C29.4906 7.27665 29.516 7.31798 29.5332 7.36346C29.5505 7.40895 29.5593 7.4577 29.5593 7.50693V9.75599C29.5593 9.80522 29.5505 9.85397 29.5332 9.89945C29.516 9.94494 29.4906 9.98627 29.4587 10.0211C29.4268 10.0559 29.3889 10.0835 29.3472 10.1023C29.3056 10.1211 29.2609 10.1308 29.2157 10.1308Z" fill="currentColor"/>
<path d="M29.2157 7.88174H25.7795C25.5897 7.88174 25.4359 7.71411 25.4359 7.50692C25.4359 7.29974 25.5897 7.13211 25.7795 7.13211H29.2156C29.4055 7.13211 29.5592 7.29974 29.5592 7.50692C29.5592 7.71411 29.4055 7.88174 29.2157 7.88174ZM27.4976 7.13211C26.9292 7.13211 26.4668 6.62764 26.4668 6.00758C26.4668 5.57127 26.7883 4.13333 27.4976 4.13333C28.207 4.13333 28.5285 5.57118 28.5285 6.00758C28.5285 6.62764 28.066 7.13211 27.4976 7.13211ZM27.4976 4.91455C27.35 5.09389 27.1541 5.69783 27.1541 6.00758C27.1541 6.21402 27.3084 6.38239 27.4976 6.38239C27.6869 6.38239 27.8412 6.21402 27.8412 6.00758C27.8412 5.69783 27.6452 5.09389 27.4976 4.91455Z" fill="currentColor"/>
</symbol>
<symbol id="offert_3" width="44" height="48" viewBox="0 0 44 48" fill="none" xmlns="http://www.w3.org/2000/svg">
<path d="M34.8364 7.35254H9.1636L0 16.0328V16.3856V21.2922V21.4013V40.6475H5.67755V21.4013H7.68866V33.9441H12.6564V21.4013H31.3429V33.9441H36.3113V21.4013H38.3218V40.6475H44V21.4013V21.2922V16.0319L34.8364 7.35254ZM9.69306 8.9012H34.3063L41.5944 15.8044H2.40488L9.69306 8.9012ZM4.25803 39.0989H1.4196V21.4013H4.25803V39.0989ZM11.2369 32.3953H9.10826V21.4013H11.2369V32.3953ZM34.8918 32.3953H32.7625V21.4013H34.8918V32.3953ZM42.5805 39.0989H39.7414V21.4013H42.5805V39.0989ZM42.5805 19.8527H1.4196V16.9661H42.5805V19.8527Z" fill="currentColor" fill-opacity="0.8"/>
</symbol>
<symbol id="offert_4" width="48" height="48" viewBox="0 0 48 48" fill="none" xmlns="http://www.w3.org/2000/svg">
<path d="M2.72172 20.2627C2.52185 20.2099 2.31635 20.328 2.26272 20.5282L0.762721 26.1532C0.709096 26.3535 0.828346 26.5586 1.02822 26.6122C1.06085 26.6209 1.0931 26.625 1.12535 26.625C1.29072 26.625 1.4426 26.5144 1.48722 26.3467L2.98722 20.7217C3.04085 20.5215 2.9216 20.3164 2.72172 20.2627Z" fill="currentColor"/>
<path d="M46.8678 26.1761L45.7428 20.5511C45.7019 20.3486 45.5081 20.2162 45.3014 20.2571C45.0986 20.298 44.9669 20.4952 45.0074 20.6985L46.1324 26.3235C46.1677 26.5016 46.3244 26.625 46.4996 26.625C46.5236 26.625 46.5487 26.6227 46.5738 26.6175C46.7767 26.5766 46.9083 26.3794 46.8678 26.1761Z" fill="currentColor"/>
<path d="M45.375 20.25H41.25C41.0426 20.25 40.875 20.418 40.875 20.625C40.875 20.832 41.0426 21 41.25 21H45.375C45.5824 21 45.75 20.832 45.75 20.625C45.75 20.418 45.5824 20.25 45.375 20.25Z" fill="currentColor"/>
<path d="M6.75 20.25H2.625C2.41763 20.25 2.25 20.418 2.25 20.625C2.25 20.832 2.41763 21 2.625 21H6.75C6.95738 21 7.125 20.832 7.125 20.625C7.125 20.418 6.95738 20.25 6.75 20.25Z" fill="currentColor"/>
<path d="M24 14.25C24.2074 14.25 24.375 14.082 24.375 13.875V13.5C24.375 12.4661 23.5339 11.625 22.5 11.625H8.25C7.21613 11.625 6.375 12.4661 6.375 13.5V20.625C6.375 21.6589 7.21613 22.5 8.25 22.5H22.5C23.5339 22.5 24.375 21.6589 24.375 20.625V16.5C24.375 16.293 24.2074 16.125 24 16.125C23.7926 16.125 23.625 16.293 23.625 16.5V20.625C23.625 21.2452 23.1203 21.75 22.5 21.75H8.25C7.62975 21.75 7.125 21.2452 7.125 20.625V13.5C7.125 12.8798 7.62975 12.375 8.25 12.375H22.5C23.1203 12.375 23.625 12.8798 23.625 13.5V13.875C23.625 14.082 23.7926 14.25 24 14.25Z" fill="currentColor"/>
<path d="M39.75 11.625H25.5C24.4661 11.625 23.625 12.4661 23.625 13.5C23.625 13.707 23.7926 13.875 24 13.875C24.2074 13.875 24.375 13.707 24.375 13.5C24.375 12.8798 24.8798 12.375 25.5 12.375H39.75C40.3703 12.375 40.875 12.8798 40.875 13.5V20.625C40.875 21.2452 40.3703 21.75 39.75 21.75H25.5C24.8798 21.75 24.375 21.2452 24.375 20.625C24.375 20.418 24.2074 20.25 24 20.25C23.7926 20.25 23.625 20.418 23.625 20.625C23.625 21.6589 24.4661 22.5 25.5 22.5H39.75C40.7839 22.5 41.625 21.6589 41.625 20.625V13.5C41.625 12.4661 40.7839 11.625 39.75 11.625Z" fill="currentColor"/>
<path d="M47.625 25.875H0.375C0.167625 25.875 0 26.043 0 26.25V27.75C0 27.957 0.167625 28.125 0.375 28.125H47.625C47.8324 28.125 48 27.957 48 27.75V26.25C48 26.043 47.8324 25.875 47.625 25.875ZM47.25 27.375H0.75V26.625H47.25V27.375Z" fill="currentColor"/>
<path d="M46.125 6.375H1.875C1.66763 6.375 1.5 6.543 1.5 6.75V8.25C1.5 8.457 1.66763 8.625 1.875 8.625H46.125C46.3324 8.625 46.5 8.457 46.5 8.25V6.75C46.5 6.543 46.3324 6.375 46.125 6.375ZM45.75 7.875H2.25V7.125H45.75V7.875Z" fill="currentColor"/>
<path d="M46.875 27.375C46.6676 27.375 46.5 27.543 46.5 27.75V40.875H44.625V37.5C44.625 37.293 44.4574 37.125 44.25 37.125H3.75C3.54262 37.125 3.375 37.293 3.375 37.5V40.875H1.5V28.125H3.75C3.95738 28.125 4.125 27.957 4.125 27.75C4.125 27.543 3.95738 27.375 3.75 27.375H1.125C0.917625 27.375 0.75 27.543 0.75 27.75V41.25C0.75 41.457 0.917625 41.625 1.125 41.625H3.75C3.95738 41.625 4.125 41.457 4.125 41.25V37.875H43.875V41.25C43.875 41.457 44.0426 41.625 44.25 41.625H46.875C47.0824 41.625 47.25 41.457 47.25 41.25V27.75C47.25 27.543 47.0824 27.375 46.875 27.375Z" fill="currentColor"/>
<path d="M45.375 7.875C45.1676 7.875 45 8.043 45 8.25V20.625C45 20.832 45.1676 21 45.375 21C45.5824 21 45.75 20.832 45.75 20.625V8.25C45.75 8.043 45.5824 7.875 45.375 7.875Z" fill="currentColor"/>
<path d="M2.625 7.875C2.41763 7.875 2.25 8.043 2.25 8.25V20.625C2.25 20.832 2.41763 21 2.625 21C2.83237 21 3 20.832 3 20.625V8.25C3 8.043 2.83237 7.875 2.625 7.875Z" fill="currentColor"/>
<path d="M5.25 7.875C5.04263 7.875 4.875 8.043 4.875 8.25V15.75C4.875 15.957 5.04263 16.125 5.25 16.125C5.45737 16.125 5.625 15.957 5.625 15.75V8.25C5.625 8.043 5.45737 7.875 5.25 7.875Z" fill="currentColor"/>
<path d="M42.75 7.875C42.5426 7.875 42.375 8.043 42.375 8.25V15.75C42.375 15.957 42.5426 16.125 42.75 16.125C42.9574 16.125 43.125 15.957 43.125 15.75V8.25C43.125 8.043 42.9574 7.875 42.75 7.875Z" fill="currentColor"/>
<path d="M6.75 15.375H5.25C5.04263 15.375 4.875 15.543 4.875 15.75C4.875 15.957 5.04263 16.125 5.25 16.125H6.75C6.95738 16.125 7.125 15.957 7.125 15.75C7.125 15.543 6.95738 15.375 6.75 15.375Z" fill="currentColor"/>
<path d="M42.75 15.375H41.25C41.0426 15.375 40.875 15.543 40.875 15.75C40.875 15.957 41.0426 16.125 41.25 16.125H42.75C42.9574 16.125 43.125 15.957 43.125 15.75C43.125 15.543 42.9574 15.375 42.75 15.375Z" fill="currentColor"/>
</symbol>
<symbol id="offert_5" width="44" height="44" viewBox="0 0 44 44" fill="none" xmlns="http://www.w3.org/2000/svg">
<g clip-path="url(#clip0_20_1051)">
<path d="M39.76 0H4.24007C1.90205 0 0 1.90205 0 4.24007V32.4538C0 32.8947 0.357414 33.2522 0.798445 33.2522C1.23948 33.2522 1.59689 32.8947 1.59689 32.4538V4.24007C1.59689 2.78257 2.78274 1.59689 4.24007 1.59689H39.76C41.2174 1.59689 42.4032 2.78257 42.4032 4.24007V39.76C42.4032 41.2175 41.2173 42.4032 39.76 42.4032H4.24007C2.78266 42.4032 1.59689 41.2175 1.59689 39.76V35.2112C1.59689 34.7702 1.23948 34.4127 0.798445 34.4127C0.357414 34.4127 0 34.7702 0 35.2112V39.76C0 42.0979 1.90205 44 4.24007 44H39.76C42.0979 44 44 42.0979 44 39.7599V4.24007C44 1.90205 42.0979 0 39.76 0Z" fill="currentColor" fill-opacity="0.8"/>
<path d="M38.7897 4.41183H33.0298C32.5888 4.41183 32.2314 4.76933 32.2314 5.21027C32.2314 5.65122 32.5888 6.00872 33.0298 6.00872H37.9913V37.9913H6.00867V6.00863H30.2723C30.7133 6.00863 31.0707 5.65113 31.0707 5.21019C31.0707 4.76924 30.7133 4.41174 30.2723 4.41174H5.21031C4.76928 4.41174 4.41187 4.76924 4.41187 5.21019V38.7897C4.41187 39.2306 4.76928 39.5881 5.21031 39.5881H38.7898C39.2308 39.5881 39.5882 39.2306 39.5882 38.7897V5.21027C39.5881 4.76933 39.2308 4.41183 38.7897 4.41183Z" fill="currentColor" fill-opacity="0.8"/>
<path d="M22.6667 8.68286H15.8235C15.3824 8.68286 15.025 9.04036 15.025 9.48131V27.2697C15.025 27.7106 15.3824 28.0681 15.8235 28.0681C16.2645 28.0681 16.6219 27.7106 16.6219 27.2697V10.2797H22.6667C27.1469 10.2797 30.7918 13.9246 30.7918 18.4048C30.7918 22.885 27.1469 26.5299 22.6667 26.5299H21.3723C20.9313 26.5299 20.5738 26.8874 20.5738 27.3284V33.7203H16.6219V30.0272C16.6219 29.5862 16.2644 29.2287 15.8235 29.2287C15.3824 29.2287 15.025 29.5862 15.025 30.0272V34.5188C15.025 34.9597 15.3824 35.3172 15.8235 35.3172H21.3723C21.8133 35.3172 22.1707 34.9597 22.1707 34.5188V28.1268H22.6667C28.0274 28.1268 32.3886 23.7656 32.3886 18.4049C32.3886 13.0442 28.0274 8.68286 22.6667 8.68286Z" fill="currentColor" fill-opacity="0.8"/>
<path d="M22.396 13.555H21.3723C20.9313 13.555 20.5739 13.9125 20.5739 14.3534V22.4562C20.5739 22.8972 20.9313 23.2547 21.3723 23.2547H22.396C25.0702 23.2547 27.2459 21.079 27.2459 18.4049C27.2459 15.7307 25.0701 13.555 22.396 13.555ZM22.396 21.6578H22.1707V15.1518H22.396C24.1898 15.1518 25.6491 16.6111 25.6491 18.4048C25.6491 20.1985 24.1898 21.6578 22.396 21.6578Z" fill="currentColor" fill-opacity="0.8"/>
</g>
<defs>
<clipPath id="clip0_20_1051">
<rect width="44" height="44" fill="white"/>
</clipPath>
</defs>
</symbol>
<symbol id='offert_6' width="44" height="44" viewBox="0 0 44 44" fill="none" xmlns="http://www.w3.org/2000/svg">
<g clip-path="url(#clip0_20_1064)">
<path d="M43.2979 25.3309C42.9101 25.3309 42.5957 25.6452 42.5957 26.033V28.1394H1.40426V26.033C1.40426 25.6452 1.08989 25.3309 0.702128 25.3309C0.314366 25.3309 0 25.6452 0 26.033V43.1777C0 43.5655 0.314366 43.8799 0.702128 43.8799H43.2979C43.6856 43.8799 44 43.5655 44 43.1777V26.033C44 25.6452 43.6856 25.3309 43.2979 25.3309ZM42.5957 30.9479H6.31915C5.93139 30.9479 5.61702 31.2623 5.61702 31.65C5.61702 32.0378 5.93139 32.3521 6.31915 32.3521H42.5957V42.4756H1.40426V32.3521H3.51064C3.8984 32.3521 4.21277 32.0378 4.21277 31.65C4.21277 31.2623 3.8984 30.9479 3.51064 30.9479H1.40426V29.5436H42.5957V30.9479Z" fill="currentColor"/>
<path d="M17.7198 26.577C17.8502 26.6835 18.0072 26.7353 18.1634 26.7353C18.367 26.7353 18.5689 26.6472 18.7077 26.4772L26.4923 16.9409C26.7375 16.6405 26.6928 16.1982 26.3924 15.9529C26.0921 15.7077 25.6497 15.7524 25.4045 16.0528L17.6198 25.5891C17.3747 25.8894 17.4194 26.3318 17.7198 26.577Z" fill="currentColor"/>
<path d="M21.1774 25.5891C20.9322 25.8894 20.9769 26.3318 21.2773 26.5771C21.4077 26.6835 21.5647 26.7353 21.7208 26.7353C21.9245 26.7353 22.1264 26.6472 22.2651 26.4772C22.2651 26.4772 29.9405 17.0746 30.0484 16.9426C30.0487 16.942 30.0492 16.9415 30.0497 16.941C30.0929 16.888 30.1394 16.8367 30.1875 16.7885C30.9696 16.0064 32.2424 16.0064 33.0245 16.7885L34.9604 18.7244C35.7426 19.5065 35.7426 20.7793 34.9604 21.5615C34.9122 21.6097 34.8609 21.6561 34.8081 21.6992L30.1653 25.4892C29.8649 25.7345 29.8201 26.1768 30.0654 26.4772C30.2042 26.6472 30.4062 26.7353 30.6097 26.7353C30.7658 26.7353 30.9229 26.6835 31.0532 26.5771L35.6962 22.787C35.7855 22.714 35.872 22.6358 35.9534 22.5544C37.108 21.3997 37.2594 19.6164 36.4086 18.2962C38.3101 16.6064 40.7327 15.6822 43.2978 15.6822C43.6856 15.6822 43.9999 15.3678 43.9999 14.9801C43.9999 14.5923 43.6856 14.2779 43.2978 14.2779C40.4563 14.2779 37.7685 15.2766 35.6345 17.1073L41.5549 11.187C41.8291 10.9128 41.8291 10.4683 41.5549 10.1941C41.2807 9.91988 40.8361 9.91988 40.562 10.1941L34.6421 16.114C36.4726 13.98 37.4711 11.2925 37.4711 8.45121C37.4711 8.06345 37.1567 7.74908 36.7689 7.74908C36.3812 7.74908 36.0668 8.06345 36.0668 8.45121C36.0668 11.0162 35.1426 13.4389 33.4528 15.3404C32.1327 14.4895 30.3492 14.6409 29.1946 15.7956C29.1132 15.8769 29.035 15.9634 28.962 16.0527L28.9638 16.0541C28.9324 16.0891 28.9031 16.125 28.8746 16.1599L21.1774 25.5891Z" fill="currentColor"/>
<path d="M3.5085 26.7352C3.89626 26.7352 4.21062 26.4208 4.21062 26.033V9.01851H14.178V26.033C14.178 26.4208 14.4924 26.7352 14.8802 26.7352C15.2679 26.7352 15.5823 26.4208 15.5823 26.033V8.54116L18.2234 4.83954L20.2032 7.61416H18.3302C17.9425 7.61416 17.6281 7.92853 17.6281 8.31629C17.6281 8.70405 17.9425 9.01842 18.3302 9.01842H20.8645V17.4233C20.8645 17.811 21.1789 18.1254 21.5667 18.1254C21.9544 18.1254 22.2688 17.811 22.2688 17.4233V8.31638C22.2688 8.17015 22.2231 8.02757 22.1382 7.90859L18.9255 3.40598V0.822245C18.9255 0.434483 18.6112 0.120117 18.2234 0.120117H6.85175C6.46399 0.120117 6.14962 0.434483 6.14962 0.822245V3.40589L2.93687 7.90859C2.85196 8.02757 2.80627 8.17015 2.80627 8.31638V26.033C2.80637 26.4208 3.12064 26.7352 3.5085 26.7352ZM7.55387 1.52437H17.5213V2.92863H7.55387V1.52437ZM7.2133 4.33288H16.8599L14.5185 7.61425H4.87193L7.2133 4.33288Z" fill="currentColor"/>
<path d="M40.4893 26.7352C40.8771 26.7352 41.1915 26.4209 41.1915 26.0331V24.8664C41.1915 23.4064 40.2687 22.083 38.8952 21.5734C38.5315 21.4386 38.1276 21.6238 37.9927 21.9873C37.8578 22.351 38.0431 22.755 38.4066 22.8899C39.2323 23.1963 39.7872 23.9906 39.7872 24.8664V26.0331C39.7872 26.4209 40.1016 26.7352 40.4893 26.7352Z" fill="currentColor"/>
</g>
<defs>
<clipPath id="clip0_20_1064">
<rect width="44" height="44" fill="white"/>
</clipPath>
</defs>
</symbol>

</defs>
</svg>
